<svg version="1.1" id="Layer_1" xmlns="http://www.w3.org/2000/svg" x="0px" y="0px"
	 width="100%" viewBox="0 0 1024 1024" enable-background="new 0 0 1024 1024" xml:space="preserve">
<path fill="#000000" opacity="1.000000" stroke="none"
	d="
M245.963806,556.028259
	C246.434189,552.405518 243.846497,552.498718 241.476166,552.345398
	C238.435898,552.148621 235.293732,552.803040 231.327805,551.366821
	C236.168091,548.753906 238.404984,544.453125 243.275864,543.137451
	C246.766937,542.194397 245.876846,537.682495 248.126999,535.082031
	C255.236954,526.865112 252.229614,516.544861 252.560928,506.955170
	C252.591217,506.078430 252.104187,505.382904 250.949768,504.786743
	C248.303467,506.219452 249.508972,508.577637 249.814148,510.679260
	C251.273804,520.730713 250.686508,530.467407 243.800888,538.575867
	C235.718552,548.093689 224.953629,551.322632 213.147690,548.388733
	C201.515518,545.498047 194.199402,537.850708 191.379013,525.560059
	C188.224838,511.814880 191.524857,500.946136 202.831924,492.561890
	C206.651016,489.730042 211.250870,488.575806 215.672394,487.199585
	C220.331787,485.749329 221.603180,486.990997 221.640549,492.047241
	C221.645111,492.664001 221.941589,493.278595 222.201935,494.272888
	C223.206818,485.671234 218.281296,482.216095 209.977661,486.139465
	C203.689194,489.110687 197.083710,492.317780 193.083313,498.418549
	C190.652023,502.126404 188.287415,506.049347 188.131866,510.891205
	C188.035675,513.885742 189.464630,517.416321 185.504318,519.661255
	C184.332550,520.325500 184.225998,523.737061 185.380722,524.777588
	C189.137161,528.162598 190.330994,532.975403 193.011871,536.906311
	C199.707840,546.724243 209.275360,551.492554 221.087952,552.006470
	C219.025101,557.554443 213.007385,555.773621 209.664185,558.930298
	C205.241135,563.106628 201.637192,567.853882 197.763443,572.427307
	C193.201233,577.813538 195.804123,584.248291 192.539703,589.392395
	C191.554749,590.944458 191.618561,593.477478 192.702133,595.192505
	C194.686874,598.333923 194.161636,601.563782 193.778549,605.163513
	C186.699783,601.851379 186.793198,594.735291 185.221619,588.926758
	C184.144165,584.944519 182.927994,582.767029 178.686462,583.600525
	C176.222336,584.084717 174.611435,582.978271 172.920303,581.448669
	C169.225266,578.106445 167.158463,573.737732 165.038101,569.405640
	C163.053757,565.351501 165.875931,562.896606 168.651962,561.189819
	C172.115555,559.060242 172.416031,556.476868 171.298172,553.133972
	C170.717468,551.397461 170.108734,549.668274 169.595383,547.911682
	C168.231171,543.243713 169.223160,539.160339 173.381851,536.484802
	C182.256989,530.774902 185.811142,523.238708 183.242859,512.657288
	C182.044815,507.721161 181.690277,502.534119 182.855270,497.304260
	C183.842010,492.874573 181.007401,488.711456 180.441269,484.341949
	C183.293686,483.398163 184.769531,486.037628 187.230255,485.732208
	C187.036438,484.506317 186.679626,483.317383 186.686600,482.130646
	C186.769714,467.979675 187.139221,466.813049 199.302399,463.513885
	C208.023422,461.148376 216.404541,457.529724 225.905258,454.123047
	C215.319244,448.761322 205.715942,443.900024 196.115189,439.033691
	C190.463806,436.169220 187.404297,427.378967 190.070099,421.679230
	C191.096039,419.485657 192.668686,420.124420 194.246399,420.893402
	C206.963989,427.092010 219.681366,433.291138 232.393555,439.500885
	C235.237473,440.890106 237.942398,442.684601 240.919159,443.655090
	C246.414322,445.446716 247.921021,449.025787 247.095154,454.404968
	C246.586685,457.716675 245.457352,461.172882 247.869812,464.487335
	C248.619690,458.272766 249.912552,451.740326 247.956589,445.896393
	C246.648392,441.987885 241.296661,439.575562 237.245285,439.072388
	C232.526291,438.486267 229.926559,434.928375 225.897156,433.524170
	C221.816269,432.102081 218.339310,428.740051 213.775375,428.393219
	C211.540298,428.223419 212.357956,426.036591 211.009949,425.416809
	C206.268066,423.236481 201.670563,420.695953 196.810425,418.834900
	C193.407959,417.532013 190.027328,418.408783 187.215485,421.243256
	C185.460495,419.931335 185.380707,418.424255 186.760406,416.335632
	C188.395889,413.859802 189.582336,411.090607 191.020920,408.480286
	C192.143860,406.442780 192.671112,404.231506 191.200882,402.352600
	C185.940689,395.630341 188.834961,388.759857 190.964417,382.121033
	C191.749588,379.673248 193.176102,377.332642 193.745773,374.722382
	C195.031860,368.829498 197.968063,364.064819 202.584595,360.058441
	C206.768127,356.427765 210.371841,352.175720 209.589935,345.907471
	C209.378525,344.212738 210.169586,342.908417 211.783615,342.414124
	C213.529160,341.879547 215.206528,341.822998 216.960434,342.974670
	C224.212463,347.736603 232.009628,351.431213 239.982712,354.862915
	C247.475647,358.087921 254.685410,361.972687 262.007263,365.592377
	C265.061493,367.102234 267.962891,367.493286 270.687744,364.706573
	C265.434998,366.005219 261.890289,362.308228 257.871796,360.450806
	C243.680710,353.891418 229.618561,347.050171 215.564240,340.199463
	C210.318970,337.642670 210.435318,337.063995 213.246094,332.014679
	C215.274185,328.371429 213.031982,325.732330 210.230225,323.514771
	C208.134583,321.856079 205.122513,321.114960 204.225266,318.146240
	C206.320511,316.111938 207.978134,317.540985 209.498489,318.245483
	C230.032913,327.760651 250.522278,337.373077 271.065430,346.869232
	C274.759430,348.576782 275.375977,350.930511 273.790009,354.474396
	C273.016357,356.203064 271.100067,357.547424 271.664612,359.846497
	C275.580139,358.433929 279.148468,350.107452 277.252136,346.885101
	C277.009674,346.473053 276.529327,345.813354 276.264191,345.860382
	C272.156097,346.588867 269.777588,342.465302 265.826874,342.335602
	C261.944855,342.208191 259.502350,338.585724 255.984146,337.026215
	C247.805908,333.400940 240.105545,328.795471 231.463470,326.022583
	C228.779205,325.161346 226.325821,322.898560 223.586716,321.447083
	C218.361359,318.678070 212.556381,317.165588 207.662079,313.539032
	C204.407211,311.127289 200.462692,312.620819 196.644119,316.359467
	C198.414856,310.271332 202.235382,309.498901 206.306503,309.105530
	C212.707001,308.487122 213.429764,307.571228 212.550751,301.284973
	C212.297104,299.470978 212.107986,297.647888 211.894638,295.828339
	C210.899780,287.344055 209.925385,286.092438 201.752335,283.937683
	C197.229752,282.745361 195.086456,279.599731 194.514648,275.365845
	C193.992477,271.499573 195.957733,268.449799 199.317764,266.767303
	C202.451508,265.198120 204.569946,267.770691 206.739166,269.531036
	C207.117752,269.838287 207.543289,270.256165 207.656204,270.697388
	C210.011581,279.901733 217.185074,279.218597 224.644196,280.576752
	C232.911819,282.082123 238.366440,281.195068 243.508331,274.394440
	C245.884262,271.252014 249.905121,269.222321 252.632614,266.023743
	C254.392380,263.960052 255.867889,262.012451 256.105652,259.083862
	C256.404510,255.402542 258.609711,252.986740 262.442963,252.420135
	C264.968048,252.046906 266.678345,250.795883 267.627655,248.341965
	C271.207764,239.087570 278.419128,233.215210 286.171112,227.514389
	C290.631653,224.234085 295.068817,220.698578 298.950409,216.554855
	C303.263062,211.950974 305.517792,211.600082 310.560303,213.469559
	C303.812195,218.426636 297.242737,223.345718 292.417969,230.160324
	C291.200104,231.880493 289.587891,232.960281 287.192078,233.435883
	C281.523499,234.561142 275.170319,242.848663 275.294006,247.945435
	C275.341736,249.911072 275.780792,251.405807 277.431335,252.668488
	C282.174927,256.297363 284.383728,262.409882 290.063995,265.322296
	C291.432648,266.024017 291.583618,269.100586 292.245850,270.948975
	C291.597168,271.819550 290.753632,271.770508 290.352692,271.385590
	C285.548828,266.773468 278.464294,270.029083 273.397400,266.416656
	C266.516357,269.906250 257.553833,266.197662 251.510269,273.908661
	C248.060669,278.309998 243.300690,281.606262 240.950851,287.126831
	C237.265488,295.785065 234.281113,303.743591 238.481918,313.737183
	C241.276794,320.386108 246.215485,324.744568 249.809433,330.378082
	C249.984802,330.652985 250.270004,331.082306 250.488022,331.072784
	C256.311798,330.818085 260.093231,335.971680 266.299957,336.110046
	C279.295013,336.399841 288.430725,330.441437 296.560547,321.505615
	C304.897736,312.341858 304.129852,301.174988 303.612671,290.046295
	C303.529968,288.266937 301.974915,287.728363 300.946289,286.687073
	C299.551453,285.275116 299.059540,283.066864 300.444702,281.724945
	C302.480774,279.752380 302.981049,282.372345 303.943420,283.510345
	C307.295349,287.474030 311.865875,290.186188 314.979553,294.448059
	C316.490814,296.516632 318.290588,298.253418 319.698273,300.556274
	C325.039154,309.293549 330.384613,308.602203 338.000702,302.094360
	C345.762390,295.462067 341.569550,287.826447 333.699768,281.412842
	C333.212524,281.015747 332.587769,280.787384 331.726929,280.316315
	C333.526367,275.695831 337.631805,273.828705 341.220062,271.491943
	C346.502930,268.051636 348.631439,262.361115 351.935516,257.427032
	C355.279968,252.432541 354.319763,247.197815 354.710663,241.957077
	C355.026337,237.724258 358.391022,238.062836 360.567017,239.197021
	C363.474945,240.712692 365.826233,243.104523 369.515961,242.871338
	C372.829956,242.661911 376.167572,242.827194 379.815338,242.827194
	C378.771942,244.781219 376.976562,243.393555 376.065247,244.445786
	C383.834930,247.607376 386.754822,255.624405 382.576263,262.917725
	C380.776917,266.058411 381.359253,268.462555 383.568878,271.052734
	C390.895569,279.641205 390.862427,286.166138 383.229279,294.275330
	C376.725708,301.184479 374.479553,310.245575 370.515137,318.435486
	C369.562775,320.402863 370.845337,322.202484 371.715149,324.056091
	C378.272644,338.030731 384.892120,351.992462 385.119324,367.927002
	C385.180939,372.248169 385.751953,376.559998 385.897949,380.882538
	C386.047028,385.295410 385.165863,389.540070 382.705353,393.281738
	C378.691010,399.386383 371.383423,399.564606 366.835052,393.841736
	C364.291534,390.641449 362.597260,387.129761 361.751007,383.122040
	C359.287415,371.454834 350.726593,365.209290 340.773743,360.701904
	C335.192566,358.174316 330.416626,361.961975 326.023285,364.850494
	C310.145355,375.290039 304.332916,391.154602 303.055664,409.162384
	C302.596924,415.629852 302.877228,422.157898 303.004669,428.654724
	C303.056519,431.298798 303.039124,434.163422 304.013336,436.532990
	C308.647369,447.804291 311.709015,459.631287 314.687286,471.310547
	C317.716217,483.188477 323.857147,492.297943 332.002716,500.829163
	C338.226440,507.347473 341.574310,515.625366 343.808197,524.259033
	C345.750305,531.765259 349.213684,538.589355 352.725067,545.395020
	C355.190247,550.172974 359.571075,553.520020 364.062439,555.660706
	C374.575714,560.671509 382.416931,569.015320 390.609741,576.592590
	C399.540894,584.852722 409.638062,590.688660 420.415833,595.383850
	C435.146606,601.801086 448.976288,609.679260 459.033722,622.104553
	C465.833557,630.505432 472.822235,638.927246 477.859161,648.935974
	C486.867920,666.837097 497.223633,684.094604 517.037415,692.602539
	C519.138062,693.504578 521.045288,695.022156 522.798035,696.536804
	C527.136047,700.285400 531.677368,703.549866 537.450806,704.736755
	C539.129272,705.081909 540.695679,705.939575 540.657654,708.007202
	C540.618164,710.154907 539.001709,710.903015 537.239380,710.849548
	C528.710815,710.591187 524.870605,717.118835 520.280701,722.488708
	C518.216736,724.903442 520.247864,727.235229 521.042786,729.490112
	C521.817383,731.687378 523.606934,731.562622 525.595276,731.367493
	C532.031433,730.736023 538.491211,730.175415 545.735779,732.958130
	C545.637695,725.943481 546.780884,719.967407 550.024963,714.651489
	C553.803772,708.459351 558.556458,703.510986 566.376953,703.011719
	C569.651672,702.802673 572.365173,703.618652 572.953064,707.522400
	C573.471252,710.962830 575.823059,712.432495 579.003967,712.114990
	C582.284302,711.787598 582.238220,708.830505 581.841919,706.672607
	C580.246460,697.985413 585.477478,690.956238 587.400391,683.166565
	C590.836853,669.244995 595.859924,655.831787 603.837158,643.702271
	C605.911133,640.548889 608.592712,638.512512 612.214233,637.974365
	C621.095642,636.654663 629.903992,634.930542 638.837280,633.848877
	C648.096008,632.727783 657.123169,630.314392 665.054260,624.916321
	C672.477600,619.863892 680.056458,615.354736 688.714905,612.292236
	C699.919373,608.329163 708.660522,600.486694 715.327271,590.525513
	C716.623352,588.589050 718.033813,586.727661 719.294434,584.769165
	C721.543152,581.275574 723.056519,577.310791 721.449890,573.398376
	C719.113525,567.709045 720.442383,562.432495 722.613342,557.426697
	C725.884033,549.885315 727.689575,541.950867 729.994263,534.143250
	C732.078552,527.082336 736.048584,521.126892 741.391296,516.219116
	C745.236206,512.687256 746.429443,508.615753 745.860474,503.655426
	C744.881531,495.121460 743.377197,487.062439 736.544983,480.653015
	C731.905945,476.300964 731.539368,469.864777 732.191101,463.768951
	C732.652893,459.450531 732.950439,455.153381 732.974915,450.818573
	C733.005249,445.439972 734.901184,440.631805 738.270203,436.565735
	C740.343994,434.062836 741.363647,431.453735 741.027710,428.326569
	C740.296570,421.521057 742.562134,414.888550 741.421143,407.933563
	C738.415649,389.613464 722.712402,374.499664 703.544922,372.094604
	C687.785034,370.117126 673.507019,363.795074 659.514404,356.723907
	C657.113159,355.510468 655.179688,353.659607 653.539856,351.498047
	C641.062317,335.050446 628.691833,318.543335 617.300110,301.292328
	C611.855347,293.047180 603.566772,287.402008 595.473633,281.802307
	C583.665405,273.632172 570.158386,271.286804 556.260254,270.057190
	C535.339966,268.206299 514.656067,264.681305 494.119812,260.405975
	C485.876373,258.689819 479.871857,253.928085 479.036621,244.683975
	C478.792419,241.981186 476.966766,241.043015 474.672363,240.681778
	C471.062195,240.113403 467.400085,239.819199 463.827118,239.083115
	C458.519073,237.989578 455.009033,234.637329 453.038696,229.629456
	C450.945770,224.309982 448.481567,219.599655 441.526031,219.714005
	C438.567780,219.762619 437.841797,217.220566 437.836548,214.704803
	C437.821289,207.401474 434.234100,201.085617 432.475220,194.288956
	C430.730682,187.547623 427.991821,180.013275 434.881866,173.848541
	C436.068665,172.786682 437.045135,172.005508 438.577850,171.755722
	C440.387695,171.460785 443.194824,172.543167 443.470032,169.673065
	C443.777344,166.468445 444.689667,163.046310 442.699127,159.987396
	C442.270020,159.327927 441.065369,158.846420 441.067291,158.285858
	C441.080322,154.463577 439.517242,152.012863 435.512207,152.465164
	C432.715851,152.780975 429.892059,152.679352 427.383087,155.298126
	C424.400391,158.411362 420.032257,160.128342 415.495911,159.102264
	C409.534698,157.753922 405.533630,162.027878 400.670898,163.767609
	C399.052887,164.346497 398.699738,166.607483 399.985474,167.551468
	C405.291321,171.447174 403.728088,177.674194 405.048737,182.725418
	C406.543945,188.444382 409.318207,193.435059 411.432709,198.781555
	C411.669891,199.381302 412.273743,200.035141 412.161865,200.543884
	C410.546997,207.887299 417.120911,213.881332 415.328827,221.218506
	C413.436432,223.205399 411.667023,217.251907 409.468933,220.960876
	C408.638489,219.969269 408.918396,218.744293 409.029297,217.665390
	C409.543182,212.667038 407.532043,210.108276 402.348114,210.234863
	C400.638824,210.276596 398.739838,210.042709 398.906158,207.681808
	C399.017303,206.103531 399.249695,204.453064 401.326111,203.790970
	C405.534393,202.449127 406.870728,198.560806 405.031189,194.624847
	C401.946655,188.025009 397.252380,181.970001 390.961243,179.577896
	C383.724548,176.826279 376.146423,172.548462 367.181976,177.318802
	C360.557617,180.843857 353.693085,183.718170 348.211639,188.981888
	C344.381042,192.660324 343.155823,197.699387 342.405365,202.581223
	C341.584198,207.922745 342.810608,213.475983 341.587616,219.881546
	C334.316376,213.136078 325.808136,214.276123 317.531494,214.170807
	C315.912994,214.150208 313.878296,214.370697 313.554077,212.131378
	C313.267792,210.153748 315.153107,209.811890 316.505951,209.335648
	C319.782501,208.182205 322.960114,207.112564 326.673187,207.411621
	C330.964447,207.757263 334.012146,205.212189 336.169556,201.374252
	C339.726440,195.046829 342.008728,187.832031 348.253662,183.287598
	C353.065796,179.785812 357.206451,175.312088 363.097900,173.385483
	C367.381531,171.984665 369.922058,168.141861 373.429138,165.637802
	C374.913208,164.578186 376.229431,162.894623 378.143280,163.033508
	C382.686554,163.363251 386.175049,161.361008 390.148224,159.472885
	C394.045166,157.620972 399.228882,158.447327 403.542786,156.683090
	C409.459106,154.263504 416.144501,155.984970 421.995636,152.935394
	C424.423492,151.670013 425.602448,148.841324 428.384888,148.317474
	C432.044678,147.628479 435.656158,147.846558 439.211792,149.138733
	C443.195740,150.586563 446.943298,150.566940 450.407318,147.494415
	C454.074890,144.241348 458.207092,144.080994 462.426025,146.558777
	C467.176086,149.348465 472.705536,149.140060 477.826996,150.505783
	C480.310455,151.168030 482.284790,149.337326 483.889618,147.630768
	C490.281464,140.833694 498.702057,139.035202 507.405029,138.099625
	C511.957367,137.610229 516.065552,136.409958 520.102539,134.097321
	C524.826721,131.390961 529.970825,129.097626 535.375610,128.298080
	C542.106384,127.302361 547.088867,123.461700 550.069702,118.210625
	C553.684204,111.843376 558.691650,106.834427 563.230957,101.367691
	C567.286621,96.483337 571.596436,91.841423 573.698730,85.696739
	C574.807678,82.455528 577.238770,80.541306 580.091980,79.008965
	C585.478638,76.116089 589.949463,72.472763 592.739014,66.715385
	C595.198547,61.639099 600.436707,60.398830 605.501160,60.220951
	C625.826111,59.507069 646.118103,61.175854 666.434326,61.403576
	C672.427002,61.470749 678.418335,61.738766 684.407898,61.975239
	C696.693359,62.460274 706.502319,67.119156 713.112793,78.049309
	C718.524170,86.996948 721.823486,97.498543 729.841125,104.554451
	C741.718811,115.007408 751.566467,128.030548 767.548279,133.424011
	C788.673950,140.553421 799.725708,157.845642 808.616821,176.716171
	C814.861023,189.968796 820.501953,203.505936 825.406555,217.343124
	C826.839294,221.385132 828.721008,225.534561 831.397522,228.819504
	C839.664734,238.965912 843.335022,251.029572 846.760803,263.235077
	C848.624451,269.875092 850.999634,276.163666 855.383423,281.639923
	C857.884399,284.764191 859.521667,288.482513 860.873657,292.262878
	C869.677368,316.879120 876.684570,342.092194 885.928223,366.583160
	C888.962341,374.622131 887.498535,383.803467 886.292603,392.350891
	C884.961731,401.783875 884.941956,410.911346 888.412598,419.878510
	C890.652100,425.664581 889.757935,431.328949 887.780518,436.967621
	C885.907593,442.308289 884.036438,447.650604 882.264343,453.025116
	C881.213989,456.210876 880.861938,459.484222 881.052856,462.879730
	C881.521301,471.208008 880.895691,472.894348 873.009094,475.628723
	C866.681641,477.822510 863.025879,480.214355 864.301514,487.939819
	C864.957764,491.914093 863.057129,496.447418 861.791382,500.568237
	C860.135132,505.960663 859.636902,511.240295 860.804688,516.808655
	C861.924377,522.148010 861.258423,527.070496 856.121887,530.488098
	C853.863892,531.990479 852.532349,534.404053 851.591858,536.951477
	C850.083313,541.038208 848.533386,544.815063 844.109070,547.032043
	C841.054443,548.562683 841.021240,552.339050 840.932800,555.534790
	C840.819580,559.626465 840.164673,563.256897 835.255005,564.195740
	C833.645020,564.503601 833.253906,565.659546 833.353027,567.195923
	C833.929871,576.136230 834.202881,585.068970 833.278259,594.017822
	C832.871704,597.952148 834.287109,601.648071 836.199280,604.982971
	C838.289062,608.627625 838.528137,612.327698 837.068359,616.031921
	C834.630554,622.218384 834.585938,628.291260 836.620605,634.589050
	C838.678589,640.959290 838.294739,647.334961 836.257751,653.750610
	C833.083557,663.747498 837.858826,677.283813 846.424072,683.366516
	C851.016724,686.627991 852.432007,691.415955 851.877441,696.573914
	C851.141479,703.418518 853.064026,709.279358 857.793335,713.900513
	C864.513733,720.467346 864.276367,727.943481 859.295410,736.780579
	C855.555786,743.415344 850.419312,749.196045 845.625732,755.185059
	C837.352600,765.521179 828.594727,775.568054 821.953735,787.131592
	C820.769775,789.193054 819.260742,790.827026 817.475403,792.399109
	C808.253601,800.519409 799.464661,809.088562 789.966614,816.949829
	C780.196655,825.036072 773.682129,836.252197 765.880859,846.206421
	C763.232666,849.585449 760.207825,852.267090 756.178650,853.769775
	C740.106873,859.763672 724.120789,865.986023 707.468872,870.307129
	C703.981873,871.211975 700.778748,873.233521 697.467529,874.789001
	C685.958252,880.195618 673.721680,882.336060 661.134949,882.807251
	C659.332581,882.874695 657.245117,882.840942 655.735901,882.026794
	C644.248779,875.829529 632.023987,878.868286 620.055298,878.982727
	C612.976501,879.050476 606.877136,882.166321 601.057861,885.907166
	C593.337708,890.869812 585.511292,895.604004 576.407166,897.705688
	C569.053101,899.403381 561.546814,899.659668 554.080200,899.779907
	C548.908875,899.863159 543.706055,898.754700 539.372742,895.627441
	C531.783997,890.150574 522.959106,887.600464 514.296997,884.671143
	C508.898193,882.845459 503.861908,880.463501 499.004730,877.423950
	C491.179657,872.527161 481.941895,872.038452 473.174957,870.225098
	C461.431396,867.795898 448.815918,867.575256 438.031158,862.984802
	C421.557373,855.972900 404.588104,856.318420 387.618286,855.160278
	C363.717072,853.529114 344.938416,841.379944 327.287720,826.755249
	C322.165771,822.511536 317.592560,817.608398 312.503632,813.321106
	C307.109528,808.776611 301.093689,805.406128 293.959167,804.011780
	C286.663239,802.585938 280.364594,799.005005 274.525482,794.260742
	C267.433350,788.498352 259.813263,783.382507 251.786484,778.946655
	C242.352158,773.732971 234.932938,766.849609 230.687805,756.549683
	C226.843933,747.223389 219.309814,740.228821 213.578888,732.082397
	C211.192734,728.690552 208.200653,725.701111 206.017960,722.196289
	C203.503067,718.158081 202.642242,713.521484 206.131409,709.632324
	C210.445709,704.823303 209.775604,699.614258 207.457367,694.728333
	C203.531540,686.454224 198.153656,678.980042 192.820084,671.540405
	C191.786774,670.099121 190.271179,668.818848 188.701111,667.987183
	C185.822540,666.462341 184.098450,664.079773 183.157837,661.190308
	C181.563354,656.292358 179.618927,651.630920 177.222046,647.023376
	C173.512115,639.891785 176.788162,634.337402 184.701141,632.945190
	C194.711548,631.183960 197.723816,626.195618 194.994232,616.229919
	C194.525284,614.517761 193.077637,613.034424 193.763321,610.414551
	C194.966629,612.164062 198.154816,610.429626 198.014160,613.512756
	C197.881744,616.414612 200.851639,617.441162 201.175552,620.084106
	C201.700546,624.367859 203.405731,628.167175 206.603134,631.351562
	C208.179672,632.921753 207.467270,635.554443 207.457535,637.619080
	C207.440536,641.217834 209.173767,644.192200 211.857803,645.248230
	C214.297668,646.208313 217.350113,646.348755 220.416946,643.633362
	C222.431046,641.850098 226.530014,641.007202 229.442017,639.513733
	C232.646042,637.870483 237.046753,637.817627 239.292969,633.290527
	C245.213181,631.674622 250.252396,628.939636 255.464249,627.710632
	C260.034821,626.632874 262.693665,622.916138 267.396851,622.136902
	C272.806854,621.240479 277.860748,618.143616 283.030029,615.911560
	C283.670288,615.635010 283.565582,614.783020 282.878784,613.860779
	C279.707611,614.135376 276.833649,615.866699 273.851227,617.098938
	C262.061829,621.970459 250.335754,626.994324 239.079361,633.034851
	C232.089859,634.756042 225.865234,638.365906 219.348129,641.217529
	C215.483459,642.908630 213.244278,642.609375 211.535995,638.506714
	C207.454163,628.703796 202.853607,619.107849 199.043564,609.204773
	C197.286255,604.637024 195.249573,599.641907 200.602844,595.185364
	C203.858154,592.475342 201.633774,587.518860 196.505508,585.467224
	C197.967010,581.839783 196.943741,577.488525 201.145065,574.583984
	C203.580109,572.900513 203.199448,568.899902 205.702271,566.523315
	C217.001038,555.794067 230.074814,552.221680 245.807129,556.214233
	C251.350525,558.754456 255.632233,562.145386 260.428925,564.613770
	C256.957001,559.370728 252.560501,555.765686 245.963806,556.028259
M780.613586,495.651398
	C784.553650,493.883942 788.487366,492.102203 792.436584,490.355438
	C794.340637,489.513214 795.979187,488.651611 795.692993,486.033051
	C794.627625,476.284790 794.393066,466.516022 795.473755,456.750580
	C795.612610,455.495697 795.704346,454.262726 794.472900,453.706848
	C790.083740,451.725677 785.834229,449.254791 779.504211,448.720062
	C782.458618,450.889526 784.138245,452.862122 786.233215,453.527985
	C793.651978,455.885925 793.687500,455.716217 793.480164,463.474823
	C793.454041,464.450165 793.820496,465.429871 793.872009,466.414490
	C794.200928,472.708282 794.582031,478.969238 793.543640,485.284668
	C793.021851,488.457855 791.851685,489.467804 788.757690,489.377228
	C784.223694,489.244476 781.380493,491.757874 779.642822,495.698334
	C776.930542,493.648102 777.562805,496.836304 777.532532,497.379364
	C777.301697,501.521484 777.369202,505.679291 777.286804,509.831085
	C777.257874,511.286621 777.690918,513.017273 776.266113,514.003174
	C771.732605,517.140137 773.829102,521.388794 773.883057,525.313843
	C775.914062,520.714294 777.547180,516.038513 779.058167,511.323547
	C780.665649,506.307037 779.072449,501.068054 780.613586,495.651398
M374.289978,751.367859
	C374.756805,751.741943 374.988861,752.773621 375.772064,752.319336
	C384.108185,747.484314 389.839355,740.969666 389.685516,730.646362
	C389.606384,725.334534 389.678314,720.020508 389.658203,714.707581
	C389.653259,713.397095 390.014435,711.878235 388.932556,710.902344
	C382.345337,704.960938 378.152252,696.107971 368.410248,693.959290
	C367.892303,693.844971 367.377960,693.135376 367.107269,692.582642
	C366.138885,690.605652 364.455505,690.313354 362.513214,690.332397
	C358.189362,690.374695 353.860504,690.458557 349.541840,690.301758
	C346.258118,690.182556 345.197052,691.623535 345.199432,694.770142
	C345.202240,698.449646 346.057037,702.277588 344.397583,705.837036
	C341.716644,706.022156 341.036072,703.279724 338.505676,703.183044
	C331.441193,702.913269 326.839020,706.622314 326.287872,713.912537
	C326.139648,715.873047 326.671967,717.972595 325.315186,719.694336
	C322.627808,723.104492 323.426727,726.519348 325.318481,729.864868
	C325.921326,730.930969 326.304688,731.982056 326.272217,733.148926
	C326.100922,739.307373 330.762939,743.235718 334.034912,747.143799
	C338.331360,752.275574 345.243256,755.138855 351.470520,757.241577
	C358.523315,759.622986 366.185120,757.636902 373.013611,754.146057
	C374.170959,753.554443 373.939148,752.112366 373.988281,750.995911
	C373.988281,750.995911 373.948730,751.022461 374.289978,751.367859
M796.689209,632.806030
	C805.754578,629.177063 804.507812,619.867981 807.638428,612.965820
	C808.343506,611.411438 808.955017,609.915955 808.231384,608.195923
	C805.517334,601.744568 805.522034,594.210632 799.608154,589.005371
	C795.895325,585.737366 792.840027,581.926208 787.188904,582.498474
	C784.842773,582.736084 783.164917,581.931458 784.896606,578.826233
	C789.293396,578.759949 793.311707,578.659363 797.697327,581.058655
	C805.278503,585.206116 820.244141,578.731995 824.885132,571.095947
	C826.609741,568.258484 827.117065,564.923523 828.830811,562.505981
	C831.617126,558.575256 832.265564,554.506836 831.613281,550.249756
	C830.626221,543.807251 834.666504,539.110474 836.776123,533.824097
	C838.233032,530.173401 837.688782,526.673157 834.543762,523.967529
	C829.218750,519.386353 822.128967,520.718994 816.065735,518.041748
	C811.570251,516.056763 805.752075,513.676086 799.960693,514.283264
	C798.367615,514.450317 797.539185,513.151978 797.101807,511.912170
	C796.661072,510.663055 797.636902,509.384003 798.583130,509.126617
	C803.953186,507.665955 808.187195,503.625549 813.312927,502.147797
	C820.391785,500.106995 826.513123,496.151794 833.336182,493.665344
	C838.817810,491.667725 843.691956,487.752960 849.256653,486.286865
	C859.990540,483.458862 861.893616,472.892303 858.342712,464.090088
	C856.569519,459.694336 852.421997,458.486053 848.132690,456.796173
	C843.031250,454.786346 837.440979,453.280670 833.006958,449.918304
	C830.615906,448.105103 828.005981,447.717133 825.488831,446.663879
	C819.565491,444.185455 814.020325,440.419556 807.895386,438.933380
	C803.338135,437.827545 800.595093,434.206757 796.142212,432.989655
	C793.634949,432.304352 790.203979,431.343384 787.738281,428.736664
	C785.650635,426.529541 777.735413,428.474091 777.576355,430.556213
	C777.127075,436.436798 776.728088,442.374939 778.134460,449.291260
	C778.914062,447.655029 779.389832,447.085419 779.438660,446.481293
	C779.679382,443.500977 779.858948,440.513306 779.964417,437.524872
	C780.228210,430.049500 781.114563,429.409912 787.707092,432.344849
	C806.703857,440.802094 825.691895,449.278717 844.666748,457.784943
	C856.424133,463.055695 856.333496,463.085663 856.263977,475.979797
	C856.246521,479.211273 855.268555,481.082367 852.133789,482.456299
	C832.177429,491.203308 812.311646,500.157166 792.423096,509.058777
	C790.380737,509.972931 788.385620,510.992615 785.402832,512.427979
	C788.437134,513.404602 790.293213,514.097900 792.199646,514.600098
	C805.050842,517.985779 817.908813,521.346436 830.776184,524.670105
	C832.409302,525.091980 834.118347,525.263123 834.667114,527.233887
	C836.052795,532.210205 831.407104,540.359558 826.331116,541.774231
	C826.391052,542.246155 826.369568,542.755676 826.525208,543.203735
	C830.375610,554.287720 828.407410,564.387329 820.443787,572.820129
	C812.896667,580.811646 803.255981,579.397522 793.789856,577.187683
	C786.835205,575.564148 779.928223,573.736572 772.315613,571.717224
	C763.498840,569.440674 763.488586,569.438232 765.628296,560.519287
	C765.936523,559.234497 766.436218,557.996826 766.782349,556.719727
	C767.703430,553.321838 769.589600,552.399780 773.106995,553.391052
	C781.744751,555.825439 790.456604,558.016296 799.192078,560.078796
	C806.466003,561.796204 811.119568,559.386902 813.197876,553.238953
	C815.542358,546.303589 813.066406,539.282104 806.472534,537.053040
	C796.047241,533.528809 785.421509,530.517578 774.014343,528.665833
	C780.791809,535.444519 789.869263,533.468872 797.452881,536.287354
	C801.915405,537.945862 805.778381,539.928040 809.501770,542.594971
	C811.306091,543.887390 812.307861,545.413391 812.358337,547.917114
	C812.468689,553.395996 808.230408,555.602478 804.934143,558.395081
	C802.510498,560.448547 800.481323,558.467468 798.384521,556.929504
	C797.347656,556.168945 795.516357,556.447998 794.038391,556.343506
	C792.382568,556.226685 789.985596,556.891357 789.184692,556.030701
	C785.300964,551.857361 779.678345,552.895142 775.084412,550.858459
	C768.165771,547.791138 764.588318,550.576416 764.299561,558.045593
	C764.240173,559.579590 764.124451,560.741211 762.576965,562.155945
	C760.612549,563.951904 760.862793,567.336609 761.842224,570.082581
	C762.808777,572.792419 765.217163,571.451599 767.029968,571.654358
	C769.008118,571.875549 771.009033,571.893433 772.880493,572.537903
	C772.314087,573.325989 771.552856,574.017944 773.078674,574.744751
	C775.403137,575.851868 777.842896,575.707520 780.276855,575.690125
	C782.529602,575.674011 784.192932,576.207092 783.040100,579.189331
	C776.093079,577.987976 769.834534,580.973267 763.331665,582.456665
	C762.728149,582.594360 762.093506,582.927307 761.642639,583.350098
	C757.899109,586.860840 754.290405,590.522461 750.433289,593.901428
	C748.872070,595.269104 747.999878,596.746460 748.350220,598.639526
	C749.121460,602.807495 744.585815,604.732605 744.335693,608.460022
	C744.322388,608.658936 742.835449,608.992432 741.895081,608.040466
	C741.746094,604.815674 740.547852,600.900452 742.323792,598.021606
	C745.455078,592.945618 748.754944,587.811890 754.235474,584.581726
	C757.572754,582.614746 759.458191,575.362610 757.409607,571.571228
	C755.625854,568.270142 753.074768,565.654175 748.255066,566.225220
	C742.294189,566.931458 731.147949,575.416016 729.223816,581.793152
	C728.292603,584.879395 727.115234,588.460754 725.325562,590.449524
	C720.685120,595.606262 722.056885,602.284180 719.449463,607.818787
	C718.717407,609.372742 719.577087,611.550659 720.900879,612.843445
	C721.848755,613.769165 722.023743,614.706421 722.300110,615.846069
	C723.585754,621.146912 726.432251,625.938293 730.620728,628.968872
	C737.328552,633.822388 744.586670,638.111084 752.110107,641.548706
	C755.257996,642.987122 758.009094,646.851013 762.852966,645.175598
	C760.090088,642.407654 756.757690,641.273071 753.822205,639.553223
	C745.391846,634.614258 736.045105,631.011963 729.526489,623.276489
	C724.863159,617.742554 722.263733,611.557617 723.381470,604.000793
	C725.225220,591.534241 731.671448,581.648193 740.405762,573.137634
	C748.673340,565.081787 750.361023,565.555908 755.835876,575.534668
	C757.289978,578.185059 756.924988,579.463867 754.222778,580.983093
	C746.769348,585.173523 742.049438,591.735229 739.651855,599.855469
	C737.620911,606.733765 740.880432,612.508057 748.193298,615.170776
	C747.023926,608.707947 748.706543,602.929810 751.694763,597.421509
	C758.279114,585.284607 771.350159,579.434692 784.098877,582.949463
	C797.609131,586.674072 805.844482,597.835571 805.272888,611.882324
	C804.939026,620.087402 800.795227,626.708496 795.369019,633.268188
	C792.889893,634.807861 790.410767,636.347534 787.965271,637.866333
	C788.882568,639.885376 791.816956,640.611511 790.447876,643.143311
	C788.119934,647.448303 786.343811,652.089966 783.216980,656.001709
	C778.276733,654.292664 774.872559,649.343994 769.192749,650.617188
	C773.059387,652.935669 776.771729,655.359314 781.143005,656.733154
	C783.545044,657.488159 784.272583,657.146912 785.908691,655.309509
	C791.651306,648.860291 791.681030,639.980530 796.689209,632.806030
M598.001709,204.015198
	C598.001709,204.015198 598.021240,204.050110 597.965210,203.167191
	C597.190308,199.686020 599.018860,195.544159 594.143677,192.575150
	C598.285706,192.032822 600.072876,189.594849 602.419983,187.961517
	C609.718079,182.882812 613.871338,176.285233 613.686340,167.216660
	C613.625183,164.220901 613.652039,161.222580 613.682983,158.225891
	C613.730774,153.593658 610.442444,150.565628 608.417175,146.897293
	C605.900635,142.339035 601.473267,139.914124 597.200867,138.439758
	C593.613220,137.201706 591.314941,133.638092 587.733276,133.483521
	C577.820984,133.055771 568.501892,130.206345 559.038269,127.706680
	C556.258911,126.972565 552.010254,125.281677 550.324463,129.522781
	C548.266235,134.700943 546.266663,140.054489 547.182922,145.889328
	C547.390015,147.208176 547.648865,148.974197 546.609680,149.702667
	C542.568481,152.535416 543.471008,156.666656 543.316040,160.564056
	C543.250366,162.216629 543.765747,164.433517 542.903137,165.417084
	C539.626526,169.153412 541.027527,173.615051 540.194519,177.715683
	C538.952515,183.829590 536.859802,189.765396 536.411133,196.061783
	C536.358704,196.797287 535.649536,197.498001 535.208679,198.191864
	C532.060425,203.146332 533.834351,207.156860 539.541870,207.604782
	C543.282593,207.898361 546.973389,207.424347 550.383057,210.016754
	C552.319580,211.489059 554.708069,211.071136 555.682495,207.825562
	C557.287842,202.477859 561.212830,197.859741 559.907043,191.699219
	C562.187317,191.699219 563.683655,191.730606 565.178223,191.692902
	C568.677979,191.604660 571.506165,191.553162 573.523926,195.836517
	C575.057434,199.091736 576.908813,202.699295 577.760681,205.833252
	C578.646423,209.091827 581.921814,210.182022 582.132019,213.008011
	C582.426575,216.968857 585.050171,217.498734 587.964844,217.602371
	C590.811951,217.703613 593.397522,218.252533 596.125977,219.234573
	C598.365295,220.040588 601.813354,221.303741 603.536316,217.749664
	C604.860779,215.017578 602.158020,205.019836 599.716675,203.360992
	C599.416443,203.156982 598.569397,203.757645 598.001709,204.015198
M686.413147,680.927979
	C683.265442,679.216125 679.903870,676.653381 676.427551,678.999084
	C673.148193,681.211792 670.076172,683.846130 667.271423,686.834656
	C664.540710,689.744263 664.928467,692.494690 666.757202,694.769653
	C668.205078,696.570679 668.679810,698.095947 667.424255,699.478516
	C666.126404,700.907593 664.165466,700.581360 662.438232,699.432495
	C658.246643,696.644409 654.028381,695.815308 649.793091,699.470276
	C649.221069,699.963928 648.265686,700.271179 647.502380,700.244568
	C641.270630,700.027771 637.225830,703.579346 633.776611,708.124756
	C633.074097,709.050537 632.599731,710.549316 631.282410,710.162781
	C626.534302,708.769958 623.132141,712.425293 619.552368,713.956055
	C616.284668,715.353333 610.637634,716.099426 610.888550,722.208923
	C607.171204,720.655884 603.869934,717.418823 600.431091,721.906189
	C600.012756,722.452087 598.531311,722.281067 597.543213,722.277527
	C586.425354,722.238220 585.976440,728.562195 588.738831,736.386536
	C591.161194,743.248047 593.760071,749.904297 594.595825,757.211487
	C595.372253,764.000366 593.316956,767.972534 587.038574,770.252380
	C582.277771,771.981079 580.183899,778.607788 583.600281,782.387756
	C585.055481,783.997925 585.226501,785.464783 585.327881,787.262268
	C585.436157,789.181946 584.729248,791.710022 587.291138,792.348328
	C589.604187,792.924500 591.919922,793.112671 594.244263,791.124329
	C598.507812,787.476929 603.176880,785.365784 609.402100,785.288635
	C614.529236,785.225159 620.475647,784.021667 624.575012,779.479675
	C625.725159,778.205261 626.698242,776.937439 625.422302,775.644958
	C621.080933,771.247314 622.744324,765.150635 620.764771,760.061707
	C618.579895,754.444824 617.434814,748.415222 614.297607,743.162598
	C612.479065,740.117554 613.966309,732.773987 616.771973,731.675354
	C617.127319,733.614990 616.836365,736.158813 617.969360,737.363953
	C620.440491,739.992371 621.640503,743.485474 623.838806,745.917419
	C626.646362,749.023193 625.499146,753.716797 629.183105,756.123596
	C631.455811,757.608276 633.708557,759.308594 635.477783,761.340881
	C639.255920,765.680847 643.872437,767.927917 649.550659,767.679688
	C656.626099,767.370361 662.908020,764.949036 668.968384,761.100281
	C674.776245,757.411926 680.392212,754.093445 684.235718,747.926514
	C688.352173,741.321472 688.862061,741.639343 683.462891,736.671692
	C676.711060,730.459717 674.258484,730.889099 667.833862,737.942566
	C663.401245,742.808960 658.603760,747.923706 649.904907,744.224121
	C656.820251,739.711121 664.666687,737.516968 670.030273,731.487061
	C675.876648,724.914429 674.275208,716.649719 675.625549,708.733276
	C689.101196,723.282776 699.379028,740.047974 712.737366,754.314880
	C712.824036,751.682129 711.171265,749.968689 709.850342,748.192749
	C697.036194,730.965759 684.146057,713.795410 671.284058,696.604004
	C666.682739,690.453979 666.696045,690.454590 672.563171,685.971863
	C673.885864,684.961121 675.242554,683.972473 676.438538,682.822693
	C679.179749,680.187500 681.190308,680.173462 683.625916,683.562744
	C688.965881,690.993713 694.574402,698.246704 700.379578,705.320984
	C702.790955,708.259460 704.806519,711.722717 708.648132,714.218811
	C706.594238,707.182617 700.802002,703.469177 697.898621,697.794312
	C694.853455,691.842041 687.593689,688.595764 687.797424,680.864990
	C688.933411,680.876404 690.174133,680.570068 690.966797,681.747986
	C693.653931,685.741394 697.248718,688.922058 701.232239,691.372131
	C704.696045,693.502625 706.575317,698.031738 711.396667,698.126770
	C705.943726,692.295044 700.265808,686.763184 694.437744,681.394409
	C687.080688,674.617065 687.644165,675.733398 694.251282,669.087708
	C696.652527,666.672363 698.442871,661.904358 703.375732,665.897461
	C705.207581,654.794128 710.881958,647.325989 720.710388,642.628784
	C731.311951,637.562073 739.488892,643.716309 748.154541,648.128967
	C742.133789,639.972778 731.321045,635.710022 720.604492,639.800171
	C711.560364,643.252075 703.651001,649.828308 702.736084,661.214966
	C699.558960,661.656921 696.636292,662.044678 693.808655,664.435486
	C688.471313,668.948181 686.525696,674.341003 686.413147,680.927979
M392.293091,761.091187
	C391.514679,761.332275 390.355621,761.327698 390.016846,761.852600
	C386.698395,766.994202 383.687531,772.341248 380.229065,777.382812
	C378.301056,780.193481 378.268677,784.031067 375.401855,786.177185
	C373.703003,787.448853 372.715302,789.064941 373.489075,790.838684
	C374.344452,792.799438 375.304565,795.325623 377.870605,795.574646
	C382.651978,796.038757 387.386902,797.175354 392.256348,796.679993
	C393.848480,796.518066 395.245667,796.153137 396.088776,794.744751
	C399.336578,789.319763 402.426453,783.797119 405.784760,778.442444
	C409.326996,772.794495 411.999695,766.540161 416.826141,761.815613
	C418.301453,762.260498 419.113281,763.224182 419.110535,764.414062
	C419.093933,771.563293 421.975677,778.325195 421.455872,785.622437
	C421.058777,791.196899 422.025848,796.867493 422.367432,802.496460
	C422.471436,804.210266 423.232056,805.482239 424.996887,805.576599
	C426.982391,805.682861 428.317535,806.882202 429.898651,807.781006
	C433.967712,810.094360 444.333008,808.934875 446.528595,805.401794
	C448.841858,801.679382 451.501221,798.082031 453.419525,794.214539
	C457.387177,786.215393 462.935486,779.317383 467.937897,771.652466
	C472.278931,782.366272 468.781525,793.569031 470.844666,804.679382
	C465.065369,803.445312 463.642090,806.238770 463.898590,811.013184
	C464.052368,813.875427 464.110870,816.693970 465.628418,819.214844
	C468.012024,823.174500 468.330658,827.084167 466.774445,831.598267
	C464.680786,837.671631 466.095673,841.920227 471.064636,844.524597
	C479.509979,848.950928 488.589722,851.993042 497.848419,847.679993
	C509.890533,842.070312 515.542480,833.646545 509.800598,821.400940
	C508.534607,818.700989 507.836823,815.739075 506.799866,812.926331
	C504.287323,806.111267 502.321075,805.156189 495.564484,807.538452
	C495.364532,806.934998 495.051453,806.348206 494.984161,805.734436
	C493.699219,794.010681 491.914062,782.315430 492.699097,770.460999
	C492.912781,767.234131 492.456635,764.032959 491.209198,761.173828
	C488.793091,755.635925 488.389496,749.949646 488.827576,744.075684
	C489.266754,738.186829 486.785309,735.514954 480.887604,735.298523
	C477.685577,735.180908 474.486694,735.909119 471.678467,732.908447
	C470.091339,731.212646 467.004883,732.221558 465.332703,733.987366
	C463.430359,735.996155 461.750153,738.348145 460.498474,740.817139
	C455.332886,751.006470 449.753601,760.882141 440.647644,769.885498
	C440.647644,761.491577 441.413361,753.955200 440.431244,746.653992
	C439.459045,739.426758 440.731659,731.685120 433.772186,725.452759
	C429.442139,721.575134 425.547791,722.766357 421.388275,722.404541
	C417.004944,722.023193 411.636993,720.845581 411.318390,728.125488
	C411.296814,728.618958 410.403564,729.041260 409.989166,729.555847
	C406.896790,733.395874 404.896820,737.936218 402.153442,741.955933
	C400.645935,744.164734 403.076111,743.969543 402.302948,745.154846
	C395.637054,748.360291 393.654877,754.301147 392.293091,761.091187
M770.443787,336.095428
	C773.722656,334.967957 776.269958,332.437714 779.249817,330.803894
	C784.947083,327.680206 787.127686,329.000519 789.081665,334.128998
	C789.316589,334.745636 789.695984,335.309845 790.030884,335.885315
	C791.905823,339.106781 795.487488,339.855042 798.238159,337.371155
	C799.102173,336.590881 799.753784,335.944946 800.960754,335.558105
	C806.059631,333.923828 807.676331,326.417053 803.956360,322.259766
	C802.181335,320.276062 803.069519,316.137970 805.659180,315.739716
	C808.558350,315.293793 809.189941,312.877502 812.023193,310.897552
	C810.280273,311.208496 809.776123,311.185944 809.384460,311.384796
	C799.285950,316.511536 799.278015,316.519745 803.743042,326.955200
	C804.438660,328.580841 805.042358,330.120972 803.070923,331.286438
	C800.922363,332.556641 798.821350,333.926117 796.591248,335.034241
	C794.335327,336.155182 792.532043,335.694885 791.283813,333.205627
	C789.812561,330.271332 788.060608,327.477783 786.151978,324.135925
	C779.840271,327.659607 773.898376,330.920929 768.011230,334.278076
	C761.166199,338.181396 760.465271,341.618439 765.664001,347.696442
	C767.500183,349.843079 767.582092,351.258636 765.692017,353.160370
	C764.405273,354.455078 763.264221,355.904419 762.139587,357.348083
	C760.126465,359.932190 758.085327,359.808899 755.873901,357.608276
	C751.664551,353.419250 748.456421,348.587708 746.815796,342.866241
	C744.407410,334.466980 746.907471,327.362762 754.131165,322.333252
	C757.398743,320.058228 760.945190,318.177429 764.403137,316.183716
	C768.791687,313.653473 773.218933,311.190277 777.100708,308.996918
	C777.223328,305.030945 771.306274,302.585632 776.445129,299.143463
	C784.098755,294.016785 784.088989,294.002167 790.138733,301.176270
	C793.136902,300.683350 795.664307,298.954834 798.071533,297.285736
	C801.136780,295.160461 803.444519,294.862549 805.419312,300.419403
	C804.853638,293.696136 801.168945,291.999786 796.697327,294.964813
	C793.845825,296.855560 791.677856,298.515472 788.747803,294.886749
	C787.551025,293.404663 784.968567,292.888916 782.679626,293.801910
	C780.941040,294.495422 779.151733,294.618927 776.555420,293.510315
	C778.763794,278.502686 773.782043,265.894104 760.777649,257.356323
	C747.315918,248.518219 733.768188,250.208710 720.173401,258.588806
	C721.166321,255.080597 722.568054,251.952133 724.062927,248.868866
	C726.015259,244.842072 729.097839,241.418839 728.816772,236.334259
	C728.618286,232.742996 726.108704,229.491669 726.146118,226.852707
	C726.272766,217.908600 718.600281,215.244644 713.936096,211.100296
	C709.575378,207.225586 703.593506,204.098007 697.509094,202.251221
	C694.169250,201.237457 689.871338,199.660843 687.827637,202.691162
	C684.266724,207.971222 682.646362,214.233185 685.800049,221.551651
	C680.211548,220.083008 675.335938,220.310623 670.943542,223.411041
	C670.548401,217.208786 674.084839,212.911194 674.604614,207.850601
	C675.415466,199.955673 673.080322,193.166199 668.637878,186.405090
	C662.442566,176.976212 653.862061,173.135803 643.277893,172.324142
	C640.958801,172.146286 638.499634,172.757065 636.304016,172.208344
	C630.658081,170.797333 625.215393,173.516800 621.717163,176.038528
	C614.871216,180.973511 609.285828,188.321716 607.595825,196.919571
	C606.044006,204.814514 607.220825,212.888412 611.241455,220.315018
	C615.567444,228.305664 623.126953,232.735733 630.689270,236.011032
	C639.554871,239.850800 649.397949,241.004471 659.351562,235.452011
	C658.338745,243.557510 660.408264,250.074341 665.809753,255.724869
	C670.880249,261.029114 676.072083,265.546417 683.869873,264.910065
	C685.054749,272.738190 694.830811,281.543884 699.302124,279.366058
	C696.538574,273.551483 686.293091,273.338959 687.698669,263.978485
	C678.939880,264.156464 672.158936,259.582520 666.655823,253.007767
	C660.552368,245.715561 660.506104,236.278427 666.059448,229.606049
	C671.337708,223.264145 679.434998,222.256775 688.244202,226.814941
	C693.003540,229.277618 697.256287,232.462158 701.433716,235.785172
	C703.047241,237.068680 704.413147,238.942184 706.968506,238.940567
	C709.969727,234.497772 709.144531,230.448776 705.961792,226.602707
	C702.061523,221.889526 696.787048,219.514145 691.015808,218.139938
	C687.980713,217.417236 686.114624,216.243698 687.233093,212.681244
	C687.675964,211.270706 687.664612,209.721741 687.909302,208.243942
	C688.434387,205.073349 689.937195,203.666275 693.446045,204.444244
	C704.786011,206.958450 714.129089,212.597610 721.224548,221.787964
	C727.363953,229.739960 728.025818,238.176331 722.833374,246.888519
	C718.983276,253.348282 713.879333,258.869019 709.312256,264.794067
	C706.288269,268.717194 702.784058,272.396851 700.213074,278.183411
	C706.543518,275.570221 708.041870,269.339020 713.280701,266.092865
	C713.280701,268.889343 713.401550,270.225311 713.255493,271.531403
	C712.954285,274.225250 709.791870,275.414398 710.126648,278.845947
	C710.769531,285.435333 709.282471,292.384674 713.660828,298.202606
	C715.614014,300.797882 715.879517,303.994659 717.806519,306.726990
	C722.139771,312.871155 729.562195,314.405609 734.621094,319.277771
	C735.021179,319.663086 735.879272,319.604462 736.532593,319.690643
	C749.951050,321.460663 750.934143,320.588989 750.648621,307.202271
	C750.641479,306.869141 750.661011,306.534760 750.640381,306.202698
	C750.381775,302.046143 747.001404,298.637115 742.810242,298.300110
	C735.771484,297.734131 731.744934,293.823486 731.722412,287.531586
	C731.700439,281.374390 737.879822,274.130005 743.517700,273.703491
	C750.455872,273.178589 757.241272,279.239288 757.324768,286.036041
	C757.413147,293.233856 758.773071,294.953461 765.803894,296.757812
	C770.192566,297.884155 774.383240,308.047424 771.038635,309.372437
	C766.427734,311.199066 763.068726,314.804657 758.436646,316.431824
	C752.571045,318.492279 746.636047,322.857147 745.883972,328.257141
	C744.514465,338.091156 742.580933,348.919128 751.745300,357.206085
	C755.949890,361.008118 760.900391,362.541290 764.039795,359.834106
	C771.042114,353.795898 771.520569,351.147064 766.137695,345.260376
	C764.781860,343.777740 764.650757,342.362183 764.835571,340.749176
	C765.171082,337.821899 768.664246,338.435303 770.443787,336.095428
M255.243210,368.377228
	C251.302933,369.243866 247.519058,370.495880 244.287735,373.180908
	C241.660675,370.840424 242.779541,368.004822 242.703125,365.524780
	C242.514282,359.397644 241.018555,357.655273 234.745804,357.382446
	C230.924896,357.216248 227.047455,357.695740 223.274170,357.237122
	C217.142563,356.491974 212.805420,360.297516 208.141159,362.888672
	C199.094971,367.914124 198.474304,378.280731 194.651627,386.497101
	C192.986893,390.075226 194.746536,394.685822 194.778580,398.810883
	C194.800003,401.568207 198.758698,399.993866 198.092896,402.609344
	C197.128448,406.397827 199.517456,408.839417 201.538147,411.381805
	C204.811142,415.499878 208.871811,419.694916 213.419067,421.149780
	C217.593109,422.485260 222.267609,423.125336 226.655045,424.490082
	C228.335175,425.012726 230.527008,425.168091 231.976685,423.963409
	C235.585495,420.964417 240.392365,420.748535 244.426041,419.271118
	C252.427383,416.340454 255.096634,409.460754 258.189789,403.604095
	C261.561615,397.219788 262.257935,389.456055 261.908966,381.750214
	C261.656677,376.179474 258.941315,372.435028 255.243210,368.377228
M287.442413,710.960815
	C285.537018,714.496338 282.111969,716.525146 279.295563,719.153870
	C275.925262,722.299561 273.464813,726.478088 276.007690,730.393372
	C277.598419,732.842712 280.798889,735.013428 283.528595,737.053650
	C286.265228,739.098877 288.739319,739.139404 291.381989,738.519775
	C294.805328,737.717041 295.847229,733.954712 298.390961,731.915039
	C307.497070,724.613098 314.723389,715.382385 323.200287,707.434509
	C330.319000,700.760071 336.725342,693.351379 344.365753,687.210327
	C348.151428,684.167542 348.014801,681.544373 345.013062,677.282349
	C343.464294,675.083313 341.101929,673.571594 339.827179,671.401062
	C337.682434,667.749146 332.997345,668.835632 330.540314,665.435669
	C329.123413,663.474976 329.091858,661.187622 327.553162,659.392761
	C323.667206,654.859741 319.622223,651.219604 313.814392,648.607727
	C305.020142,644.652710 297.699829,643.560547 288.723724,648.569519
	C282.694916,651.933777 276.952759,654.594604 273.431610,660.890686
	C271.057739,665.135254 267.518707,668.744446 268.170471,674.201416
	C268.444977,676.500061 268.144135,678.861267 268.265533,681.185669
	C268.457611,684.863037 268.856598,688.197754 270.520630,691.911682
	C272.258392,695.790283 275.715912,697.334656 277.473267,700.532593
	C279.324066,703.900757 281.388245,706.573853 285.642731,706.690308
	C288.235931,706.761230 288.401642,708.452026 287.442413,710.960815
M530.819153,760.693359
	C542.258179,760.615356 547.055908,756.300842 546.692444,746.580444
	C546.533203,742.322815 543.534363,739.843567 540.945923,737.226807
	C537.441345,733.683716 532.704590,733.778564 528.486023,734.973755
	C524.058044,736.228333 520.464050,738.961548 521.216614,744.683289
	C521.538269,747.129333 521.169861,749.658508 521.249390,752.145630
	C521.443176,758.207092 523.842834,760.527405 530.819153,760.693359
M226.441315,617.772644
	C236.623276,613.303833 246.780548,608.777466 257.000488,604.397339
	C260.602142,602.853821 262.523346,601.189270 259.969604,597.024902
	C258.166077,594.083984 257.181366,590.646851 255.771255,587.457703
	C250.944641,576.541626 241.603775,571.911560 233.654144,572.612793
	C221.827316,573.656006 212.906418,581.245117 211.509186,592.111511
	C210.171036,602.518311 216.011932,611.114746 220.388992,620.299194
	C222.448181,619.442749 224.110794,618.751282 226.441315,617.772644
M775.415588,380.576660
	C773.814392,381.741211 772.235229,382.937592 770.607544,384.063812
	C766.880859,386.642303 765.401245,390.932831 764.657654,394.729095
	C763.625427,399.998535 773.218933,408.790863 778.677856,408.666504
	C780.009583,408.636139 781.515381,408.813904 782.233765,407.407745
	C783.095093,405.721893 784.547058,405.636108 786.050964,405.701019
	C788.555664,405.809265 789.785156,404.803802 789.668945,402.194305
	C789.618652,401.066528 789.784485,399.994415 790.568481,398.942505
	C793.441589,395.087677 791.522339,385.887390 787.463928,383.381836
	C784.003296,381.245239 780.409424,379.663849 775.415588,380.576660
M772.319458,599.685852
	C769.812134,600.268799 767.782227,601.707092 765.935059,603.394897
	C758.110413,610.544250 759.719604,623.772949 768.851074,627.574707
	C774.554382,629.949219 779.660828,628.979553 783.953674,624.706848
	C788.661804,620.020813 790.257263,612.889832 787.842957,607.322937
	C785.531616,601.993591 780.336975,599.235718 772.319458,599.685852
M234.942291,510.686646
	C234.362778,507.261810 232.503769,504.541473 230.197021,502.067505
	C228.727371,500.491333 227.705093,498.870331 229.517792,496.851410
	C232.244156,493.814819 234.030136,489.902374 238.592087,487.846436
	C233.743851,485.809387 232.460480,489.838867 230.245590,491.592133
	C227.666046,493.634125 226.615814,497.446198 222.567276,497.975677
	C224.260635,508.533020 225.927734,518.926758 227.626007,529.514709
	C234.663666,526.425720 236.782303,520.911194 234.942291,510.686646
M488.884491,207.747833
	C493.609314,206.822495 498.992676,209.883652 503.048798,204.389221
	C505.207153,201.465530 504.145844,198.725388 504.693665,195.936432
	C506.273773,187.891571 498.611145,180.730087 489.924652,182.246643
	C484.642395,183.168869 479.510529,188.180954 479.275177,193.580917
	C478.924866,201.618347 481.957733,206.538513 488.884491,207.747833
M812.664917,461.399231
	C811.668762,461.161346 810.443604,460.862061 810.424744,462.365570
	C810.342651,468.915436 810.389465,475.466888 810.389465,483.034912
	C819.742737,479.146149 828.067017,475.685181 836.936462,471.997559
	C829.017029,467.507385 820.867065,465.238647 812.664917,461.399231
M207.203918,508.884766
	C203.085999,513.989441 202.975922,519.685913 205.588242,525.263123
	C207.561844,529.476685 211.148621,532.082947 216.248398,532.022339
	C216.414337,531.311768 216.674866,530.821960 216.608917,530.380920
	C215.999725,526.307556 215.334137,522.242615 214.487289,516.937073
	C213.893692,521.326904 214.963638,524.630188 213.701950,527.785767
	C206.900406,524.442139 205.048691,515.226257 210.094986,511.263153
	C213.202805,512.483521 210.970917,515.589539 212.261810,518.148621
	C213.149338,513.709473 214.795242,509.955933 212.124725,506.258148
	C210.177521,506.138000 209.018829,507.430420 207.203918,508.884766
M696.626221,245.709061
	C693.254028,243.299286 690.391968,240.092468 686.336121,238.747437
	C681.711792,237.213898 677.551636,240.728348 678.540100,245.208557
	C679.983704,251.751083 690.386414,256.285522 695.999512,252.584946
	C698.218079,251.122299 701.151672,249.042313 696.626221,245.709061
M191.404144,485.238007
	C197.114990,487.372284 201.884109,483.246216 206.354568,481.559998
	C211.895935,479.469879 217.618607,477.746735 223.166336,475.614014
	C226.428635,474.359863 230.290146,474.192535 233.136353,471.276703
	C230.951859,469.720581 229.446884,470.580261 227.902359,471.122284
	C223.845001,472.546143 219.677628,473.705048 215.730469,475.384155
	C207.694550,478.802643 198.964859,480.381073 191.404144,485.238007
M727.286621,743.275940
	C727.076904,746.314392 724.803223,747.731812 722.681580,749.369385
	C720.173462,751.305176 716.997559,752.554138 715.489929,755.459961
	C716.041626,756.452881 716.697571,756.828186 717.315125,756.499634
	C722.231689,753.884033 725.518921,749.314026 729.815796,745.939880
	C730.868896,745.112915 730.305908,743.868958 729.915588,742.720886
	C728.672424,739.064392 725.347595,736.604370 724.300781,732.724792
	C724.110779,732.020508 722.748230,728.664062 719.805298,730.066345
	C720.935425,735.082458 726.058350,737.699158 727.286621,743.275940
M731.675842,661.850281
	C732.347351,662.166077 732.518616,663.304016 734.270630,662.832581
	C731.794678,660.136414 729.096375,658.767944 725.912720,659.422241
	C721.144165,660.402161 718.037048,663.806213 716.630737,668.218079
	C715.778381,670.891907 715.483948,674.199036 718.545593,676.899841
	C720.144592,672.554382 718.199524,668.242371 720.669739,664.874817
	C723.246460,661.362000 726.788696,660.143494 731.675842,661.850281
M274.607819,587.608032
	C272.421478,583.258362 272.657990,577.561829 266.815430,573.602295
	C270.513092,582.113464 273.640442,589.311951 277.018188,597.086731
	C278.259796,593.091553 277.347900,590.481018 274.607819,587.608032
M242.203064,492.783539
	C244.632111,495.660767 246.239716,499.070007 248.382965,503.331299
	C249.385773,496.146027 244.435364,493.638672 241.469818,489.617828
	C240.738983,491.025574 241.396317,491.636414 242.203064,492.783539
M757.945740,654.499207
	C756.878906,652.053467 755.299866,651.985046 752.953064,653.459045
	C755.057617,655.347168 756.217651,657.859009 759.066406,658.263184
	C760.006897,656.678284 759.214600,655.833252 757.945740,654.499207
M239.517960,467.291748
	C238.218506,467.778381 236.919052,468.265015 235.169052,468.920380
	C237.386765,470.007629 239.294312,470.021332 240.775452,469.303894
	C242.901443,468.274078 241.986145,467.461548 239.517960,467.291748
z"/>
<path fill="#000000" opacity="1.000000" stroke="none"
	d="
M284.216797,239.251785
	C286.837677,236.387589 289.303711,235.323959 292.250580,239.345291
	C294.322174,229.929306 299.450317,223.533951 307.172394,219.142548
	C312.921844,215.872955 319.147217,215.148010 325.548523,215.927246
	C337.295563,217.357224 349.600739,229.960571 351.189728,242.089645
	C352.253326,250.208374 350.511444,257.729858 345.377533,264.158661
	C340.470123,270.303864 334.189514,274.453979 324.801544,275.089722
	C329.857513,280.978790 333.847565,286.034393 338.290802,290.654114
	C341.117706,293.593262 341.448914,295.339508 337.975220,298.127960
	C328.224548,305.955261 328.397156,306.062561 319.982697,296.410828
	C307.081818,281.613007 294.058014,266.922150 281.180573,252.104050
	C276.543335,246.768005 276.667633,246.660339 281.831635,241.597076
	C282.544983,240.897690 283.255249,240.195160 284.216797,239.251785
M308.952240,257.530457
	C314.521912,262.867004 320.403503,264.283112 326.114441,261.662567
	C331.342133,259.263763 335.062073,253.467407 334.763245,248.186203
	C334.431183,242.317749 328.952271,235.229996 323.142670,233.153366
	C317.027618,230.967575 310.663788,232.942596 306.761261,238.237396
	C302.665771,243.794037 303.265198,250.439499 308.952240,257.530457
z"/>
<path fill="#000000" opacity="1.000000" stroke="none"
	d="
M258.145569,272.907959
	C276.408691,263.692139 297.668549,274.514130 301.680725,294.128082
	C304.597656,308.387573 293.162170,327.422974 277.984009,332.008423
	C262.808472,336.593079 246.124527,328.095337 240.904984,313.122742
	C236.661911,300.951233 241.992935,284.833496 252.985474,276.623352
	C254.583923,275.429474 256.207123,274.268738 258.145569,272.907959
M274.273590,287.146240
	C265.144684,284.979279 257.912964,288.667786 255.577469,296.682129
	C253.484619,303.863861 258.968201,313.101562 266.728119,315.466614
	C274.987152,317.983795 282.222931,314.609070 285.044556,306.923950
	C287.882263,299.195221 284.086029,291.754517 274.273590,287.146240
z"/>
<path fill="#000000" opacity="1.000000" stroke="none"
	d="
M351.375244,191.365494
	C366.032715,173.320740 389.976135,174.736374 401.338654,194.031586
	C404.353760,199.151688 404.121979,199.978821 398.758331,202.780365
	C389.032623,207.860306 379.292084,212.911880 369.572327,218.003174
	C368.570465,218.527969 367.667511,219.241592 366.487610,220.020020
	C368.099243,223.531754 371.025909,224.567139 374.226410,224.619400
	C382.419037,224.753189 389.176025,221.972137 393.530731,214.547119
	C395.856903,210.580841 398.819824,210.573685 405.372314,214.222244
	C409.143219,216.321945 406.651733,218.898682 405.667572,221.035828
	C403.475830,225.795288 399.804016,228.864365 394.292969,229.419662
	C393.902313,227.464340 395.535126,226.495560 396.376953,225.176331
	C397.018524,224.170898 397.842896,223.198074 396.826080,222.060532
	C395.950104,221.080536 394.716797,221.066208 393.579041,221.494263
	C391.339752,222.336761 389.550751,223.944565 388.080231,225.701080
	C386.019623,228.162476 387.637970,229.740479 389.733795,231.376236
	C391.099792,232.442398 390.031769,233.798935 388.873505,234.647369
	C378.167358,242.489700 362.221985,239.750244 354.944672,233.324936
	C341.735748,221.662430 339.922852,203.834045 351.375244,191.365494
M383.851532,197.535278
	C379.038361,192.599960 371.592682,191.710587 365.847839,195.384811
	C360.690552,198.683258 358.972107,203.864014 361.183502,210.405319
	C368.809540,206.410080 376.735168,203.156921 383.851532,197.535278
z"/>
<path fill="#000000" opacity="1.000000" stroke="none"
	d="
M404.803040,164.969803
	C408.358276,163.492355 411.653168,162.360291 414.892517,161.086929
	C419.377258,159.324020 419.336548,163.554977 421.030701,166.230301
	C423.893738,160.691818 428.576874,157.878525 433.255829,155.057343
	C435.815826,153.513809 437.662445,153.949768 438.610504,156.947083
	C438.860748,157.738266 439.106567,158.530991 439.343964,159.326111
	C441.844482,167.700653 441.843903,167.700806 434.259705,171.648926
	C427.983917,174.915909 426.220245,182.762009 429.310455,192.067612
	C431.814880,199.609177 433.946777,207.274460 436.352692,215.245255
	C431.922882,217.490387 427.429321,218.538361 423.051605,219.864700
	C421.088654,220.459442 419.729187,219.373184 419.184418,217.623322
	C414.050964,201.133545 408.967773,184.627960 403.961670,168.099213
	C403.713989,167.281372 404.313110,166.207062 404.803040,164.969803
z"/>
<path fill="#000000" opacity="1.000000" stroke="none"
	d="
M207.366028,447.776245
	C210.624130,449.513336 213.635071,450.946869 217.484482,451.699188
	C215.278793,454.896515 213.586563,456.933716 209.770966,457.474335
	C205.063797,458.141266 200.550003,460.191650 195.967407,461.689362
	C195.526550,461.833466 195.176498,462.586823 194.807098,462.569611
	C185.613174,462.140167 183.155731,467.663330 184.003937,477.123077
	C180.339920,468.938904 181.816788,463.721344 187.636322,460.473572
	C189.370163,459.505920 191.285950,458.868378 193.043076,457.937408
	C195.565125,456.601227 199.514908,456.658508 199.782745,452.892181
	C200.057022,449.035736 196.915695,447.289642 193.908875,445.638885
	C191.732742,444.444122 189.593552,443.007904 190.272354,439.241394
	C195.367477,443.500488 202.093811,443.664307 207.366028,447.776245
z"/>
<path fill="#000000" opacity="1.000000" stroke="none"
	d="
M373.992218,220.557831
	C376.263763,216.795197 380.184570,215.387207 383.539246,214.109329
	C385.671814,213.296997 386.897949,210.261322 390.075897,211.322739
	C390.114075,214.046631 389.200714,215.815826 386.856964,217.701096
	C383.814941,220.148041 379.870605,220.300278 376.899170,222.735153
	C375.352722,224.002380 374.195709,222.716446 373.992218,220.557831
z"/>
<path fill="#000000" opacity="1.000000" stroke="none"
	d="
M429.240356,223.136383
	C430.236389,218.528946 433.243011,220.226547 436.555389,220.633301
	C434.534515,223.655502 431.872467,223.195251 429.240356,223.136383
z"/>
<path fill="#000000" opacity="1.000000" stroke="none"
	d="
M186.012482,424.996857
	C186.018433,427.620453 186.018433,429.903748 186.018433,432.246613
	C182.381790,430.860474 182.500519,430.926941 184.526489,427.307800
	C185.182388,426.136169 185.036469,424.515686 185.264343,423.055481
	C186.232513,423.386230 185.855530,424.125702 186.012482,424.996857
z"/>
<path fill="#000000" opacity="1.000000" stroke="none"
	d="
M392.912354,761.338013
	C397.111755,756.431274 400.059113,751.117126 402.891296,745.329102
	C408.111877,739.453674 410.924164,732.357910 415.581665,726.463501
	C420.179626,720.644531 424.717224,726.206177 429.225525,726.087036
	C432.020508,726.013123 435.292969,726.880066 435.599792,731.467285
	C436.576660,746.073425 438.022491,760.648132 439.289825,775.234802
	C439.387329,776.356812 439.505798,777.476929 439.695953,779.437927
	C443.570099,775.463440 445.502289,771.072083 448.042664,767.164856
	C453.847137,758.237305 459.356995,749.117920 464.967651,740.064758
	C467.271362,736.347534 470.082672,734.906494 474.023285,737.827698
	C474.545135,738.214417 475.272064,738.749023 475.793304,738.647461
	C482.083282,737.421021 482.907654,742.041016 484.409332,746.302368
	C489.250000,760.038879 489.199249,774.390625 489.985718,788.641235
	C490.027069,789.391235 489.609283,790.166565 489.391907,790.980042
	C486.534302,791.074280 485.010895,789.156738 483.210815,787.794250
	C480.242706,785.547485 478.609528,786.654968 478.007965,789.938110
	C477.489532,792.767639 477.863312,795.841431 474.906738,798.280823
	C474.360962,785.954346 471.898041,773.962891 470.448822,761.021851
	C466.677429,766.968140 463.192627,772.409668 459.761475,777.884888
	C454.636230,786.063416 449.392365,794.174194 444.520386,802.501770
	C442.502289,805.951233 440.301117,807.028259 436.388428,806.058594
	C425.811890,803.437500 425.352112,802.713745 424.605988,791.658936
	C423.665710,777.726501 422.251831,763.826050 420.901550,748.293396
	C415.885223,756.516724 411.629944,763.471924 407.395538,770.439819
	C403.332581,777.125549 399.168518,783.754333 395.287445,790.544495
	C393.041351,794.474182 390.424866,795.706726 385.865356,794.326477
	C374.678284,790.939758 374.761353,791.193970 381.105103,781.386108
	C385.252167,774.974609 389.871887,768.813293 392.912354,761.338013
z"/>
<path fill="#000000" opacity="1.000000" stroke="none"
	d="
M468.288177,812.344482
	C469.515381,809.886536 470.509460,812.124695 471.838806,812.202026
	C471.972809,810.569458 472.103973,808.971313 472.235138,807.373230
	C472.397369,807.365906 472.559570,807.358582 472.721802,807.351257
	C472.948975,811.166199 473.176178,814.981140 473.429901,819.241516
	C468.520386,819.325867 467.505676,816.693054 468.288177,812.344482
z"/>
<path fill="#000000" opacity="1.000000" stroke="none"
	d="
M656.228027,178.632355
	C673.259460,188.046021 674.705505,205.158859 668.772095,217.843475
	C667.182983,221.240692 665.490479,222.173447 661.882385,220.370010
	C651.609619,215.235352 641.172180,210.430054 630.796448,205.501709
	C629.631226,204.948273 628.585144,204.007019 626.913757,204.198792
	C625.510620,207.958221 626.838989,211.268967 629.000427,213.956802
	C633.761658,219.877441 640.206970,223.115326 647.794434,222.264648
	C651.657227,221.831558 652.996216,223.246368 653.838989,226.275848
	C654.545898,228.816818 655.102417,231.399612 655.774170,234.164383
	C649.480896,237.580933 643.130981,237.318512 636.831421,235.373795
	C623.856934,231.368469 613.610168,223.991943 610.592957,210.021469
	C607.764832,196.926025 612.951538,186.386444 623.837952,178.992188
	C634.225525,171.936783 645.104248,172.426758 656.228027,178.632355
M633.423889,191.449448
	C632.291687,192.588455 631.107849,193.807800 633.380249,194.900681
	C640.660461,198.401947 647.971985,201.838135 655.307007,205.316330
	C657.279236,200.014847 655.853577,195.013367 651.901367,191.933044
	C646.040161,187.364914 640.134521,187.068069 633.423889,191.449448
z"/>
<path fill="#000000" opacity="1.000000" stroke="none"
	d="
M713.313477,290.226318
	C710.707581,271.442291 720.947388,257.025513 739.253418,254.485901
	C751.585999,252.774979 761.078552,258.814148 768.460388,268.292572
	C773.896484,275.272675 776.739990,283.021240 774.659607,292.054565
	C773.732910,296.078796 771.699341,297.442474 767.849670,295.528168
	C766.510498,294.862274 765.199524,294.013428 763.774109,293.671143
	C759.585999,292.665497 758.551941,290.301514 758.887451,286.028015
	C759.567322,277.367432 753.656006,271.024261 745.453247,270.737152
	C737.345276,270.453339 728.861633,277.985199 728.364746,285.908478
	C727.860352,293.952728 734.333130,301.364990 742.591064,301.447266
	C746.040833,301.481628 746.906006,302.972351 747.307373,305.721313
	C747.474487,306.866028 747.782532,307.991852 748.055847,309.119110
	C749.814087,316.371124 748.410889,317.910553 740.734436,317.136749
	C728.460022,315.899475 716.820618,304.613373 713.313477,290.226318
z"/>
<path fill="#000000" opacity="1.000000" stroke="none"
	d="
M646.850586,219.293121
	C641.608154,221.071442 637.984253,216.856125 633.433411,216.118057
	C632.461182,215.960388 631.720337,213.732803 632.208435,212.167175
	C632.719360,210.528305 634.557373,210.271881 635.478882,210.784958
	C639.605408,213.082611 645.555481,212.922791 646.850586,219.293121
z"/>
<path fill="#000000" opacity="1.000000" stroke="none"
	d="
M697.536621,224.073761
	C700.110657,226.122864 702.710632,227.451859 704.719727,229.712296
	C706.188904,231.365204 706.150330,232.848831 705.978333,235.213333
	C698.888733,231.496796 694.139221,224.707123 686.038025,222.996567
	C689.569824,221.342026 689.569824,221.342026 697.536621,224.073761
z"/>
<path fill="#000000" opacity="1.000000" stroke="none"
	d="
M658.024597,229.725342
	C657.533264,227.251862 654.532410,225.830582 656.404846,222.919754
	C659.621155,221.927170 661.959229,224.495941 665.127502,225.384338
	C663.544067,228.489929 662.014709,231.219620 659.914307,233.593872
	C658.170593,232.741760 658.951660,231.058533 658.024597,229.725342
z"/>
<path fill="#000000" opacity="1.000000" stroke="none"
	d="
M649.153809,764.386475
	C641.346191,763.974182 635.477234,760.762939 631.851257,754.390320
	C626.091064,744.266846 620.699524,733.933167 615.198914,723.663269
	C614.754089,722.832886 614.269470,721.701660 614.486938,720.894226
	C615.455994,717.295227 627.589600,713.398865 630.898376,715.839600
	C635.633301,706.696655 643.723450,702.354614 653.427734,700.547119
	C659.656433,699.386963 667.372009,703.199829 670.366394,708.733032
	C674.210754,715.836914 673.424072,723.214661 668.386292,728.604736
	C663.617126,733.707397 657.376099,736.580566 651.499451,740.015991
	C649.614014,741.118164 646.237549,741.381348 647.211853,744.476990
	C648.105591,747.316711 650.948486,748.767700 654.002197,748.591858
	C659.581848,748.270752 663.986938,745.257507 668.094177,741.777771
	C668.848328,741.138855 669.422974,740.287964 670.080627,739.535156
	C674.692688,734.255676 674.692810,734.255676 680.549744,738.436890
	C685.127563,741.704712 685.527588,743.474670 681.754822,747.615234
	C673.117859,757.094055 663.190247,764.292053 649.153809,764.386475
M639.481934,731.728821
	C640.246277,732.501221 641.252075,732.922546 642.195557,732.465637
	C646.364136,730.446533 650.717468,728.683228 654.254761,725.613647
	C656.218323,723.909729 657.204773,721.680420 656.093384,718.934143
	C654.903259,715.993408 652.617676,715.147949 649.716187,715.297363
	C641.691345,715.710571 636.632690,723.202209 639.481934,731.728821
z"/>
<path fill="#000000" opacity="1.000000" stroke="none"
	d="
M585.156860,778.987244
	C583.676758,776.024414 584.867676,774.853027 587.300720,773.799438
	C598.349609,769.014465 600.763062,762.895813 596.819153,751.528931
	C594.647339,745.269348 593.009949,738.820801 591.231384,732.429688
	C590.250061,728.903687 591.690308,726.865173 595.222839,725.721436
	C606.197266,722.168030 606.233215,722.066589 609.499207,732.920898
	C613.516602,746.272827 617.274109,759.704773 621.448303,773.006592
	C622.794250,777.295715 621.446777,779.270142 617.455688,780.249573
	C616.008179,780.604797 614.535461,780.990601 613.193604,781.617737
	C609.278076,783.447876 606.326416,783.255249 605.469666,777.423767
	C602.107727,781.474304 599.320801,785.057251 595.137756,787.262146
	C589.428894,790.271362 588.321045,789.968933 586.471191,783.665894
	C586.050537,782.232544 585.690491,780.781433 585.156860,778.987244
z"/>
<path fill="#000000" opacity="1.000000" stroke="none"
	d="
M597.988770,204.000305
	C597.860718,208.436996 601.684021,211.757965 601.682251,216.494644
	C595.737000,217.338287 590.470886,214.789352 584.985474,213.928940
	C583.450928,213.688217 583.107056,211.711395 582.501160,210.372421
	C580.376587,205.676926 577.847900,201.092392 576.378174,196.194046
	C575.071594,191.839325 572.538391,189.912476 568.387878,189.275116
	C565.455505,188.824829 562.547852,188.212936 559.079712,187.571548
	C557.848022,193.125443 556.421936,198.373474 555.593445,203.714218
	C555.057251,207.170578 553.251831,207.700684 550.421387,207.245758
	C549.929688,207.166733 549.446045,207.034439 548.961243,206.916367
	C533.809204,203.226562 536.401550,205.580963 539.061401,191.792038
	C542.680725,173.029541 547.021118,154.407135 550.825806,135.678635
	C551.677368,131.486877 553.096375,129.499786 557.723389,130.670715
	C569.319580,133.605270 581.414734,134.477966 592.690674,138.697662
	C603.058899,142.577652 610.358582,149.483307 611.497742,161.082443
	C612.467102,170.952209 609.459290,179.481308 601.467834,185.856216
	C601.207581,186.063797 600.904236,186.224777 600.670837,186.457535
	C598.319580,188.802429 592.871704,188.344162 592.807495,191.684296
	C592.729126,195.761337 595.279968,199.840637 597.763184,203.812744
	C598.021240,204.050110 598.001709,204.015198 597.988770,204.000305
M563.563049,163.961075
	C563.294800,165.091553 563.092773,166.242783 562.746460,167.348785
	C561.512939,171.287720 562.950928,173.214172 567.027100,173.786270
	C570.958557,174.338043 574.799683,175.523743 578.728699,176.104797
	C585.421814,177.094635 591.054443,173.555161 592.630005,167.647446
	C594.702393,159.876740 592.316162,155.007309 585.130127,152.107544
	C580.315369,150.164658 575.161499,149.684586 570.176208,148.483093
	C567.797119,147.909714 566.495544,148.879013 566.103943,151.450012
	C565.505371,155.379303 564.601990,159.262177 563.563049,163.961075
z"/>
<path fill="#000000" opacity="1.000000" stroke="none"
	d="
M240.021408,419.204132
	C227.722046,423.663818 216.524872,422.361603 207.254959,413.470123
	C197.404770,404.022095 195.152252,392.164520 199.917007,379.520905
	C204.450760,367.490265 213.440964,360.430756 226.445938,359.029633
	C230.709366,358.570282 234.632828,360.147217 238.558197,361.533905
	C241.583374,362.602570 240.699692,364.842804 240.128006,366.919617
	C237.127319,377.820587 234.096359,388.713196 231.065033,399.605682
	C230.673416,401.012909 229.823151,402.379944 230.783417,403.854309
	C238.122589,404.793518 243.492172,396.719269 244.817337,388.542572
	C245.246964,385.891541 245.188812,383.225403 244.223694,380.656647
	C242.990692,377.374725 243.999954,375.282654 247.350754,374.062775
	C249.816406,373.165100 252.139679,371.876404 254.447586,370.798767
	C265.560120,382.765259 257.561584,409.738800 240.021408,419.204132
M225.781464,378.068604
	C226.536560,375.442017 224.886017,375.295990 223.036057,375.463623
	C217.310394,375.982513 212.956604,380.847931 211.627487,388.163422
	C210.688126,393.333710 213.516281,398.401215 219.202194,401.053894
	C221.344543,393.567749 223.465591,386.156067 225.781464,378.068604
z"/>
<path fill="#000000" opacity="1.000000" stroke="none"
	d="
M240.596405,394.203308
	C236.935059,399.286926 236.826218,399.336792 233.261429,397.587769
	C237.781967,393.034637 236.492294,386.623657 238.640717,381.277313
	C239.079147,380.186279 238.201172,378.362885 240.239456,378.217285
	C242.633484,378.046295 242.387833,380.014832 242.243027,381.344543
	C241.789185,385.511932 243.708618,389.973358 240.596405,394.203308
z"/>
<path fill="#000000" opacity="1.000000" stroke="none"
	d="
M313.919006,650.830872
	C322.354462,656.052246 328.440887,662.539490 329.398773,672.630920
	C334.086578,670.534180 334.086548,670.534180 338.178497,674.625122
	C345.279510,681.724304 345.292877,681.737610 338.395569,688.678650
	C323.274872,703.895081 308.070953,719.029724 293.059723,734.353271
	C289.490845,737.996460 287.036011,738.093811 283.355896,734.288086
	C276.088257,726.772400 275.840851,726.971802 283.045715,719.369995
	C286.476807,715.749878 290.010132,712.226807 293.471588,708.635132
	C293.657928,708.441772 293.607422,708.020203 293.666962,707.705811
	C273.665436,702.492615 265.243927,682.123230 272.559479,667.154785
	C278.365631,655.274658 295.666748,641.324585 313.919006,650.830872
M288.628845,674.396423
	C285.748535,681.031067 286.851562,687.356812 291.650085,691.722351
	C296.471100,696.108398 302.301849,696.832886 308.253082,693.448242
	C313.762024,690.315063 317.418396,685.783203 317.619446,679.115356
	C317.802124,673.058228 314.531921,669.076477 309.510559,666.399292
	C302.488831,662.655518 294.955933,665.442993 288.628845,674.396423
z"/>
<path fill="#000000" opacity="1.000000" stroke="none"
	d="
M374.005402,750.979370
	C354.756531,761.687927 333.479706,748.304871 328.671082,734.522400
	C325.076630,724.219849 327.043518,714.915405 333.014893,706.135376
	C334.769623,703.555237 336.395416,705.129822 338.077942,706.151917
	C348.164795,712.279907 358.249115,718.411987 368.343445,724.527710
	C369.177643,725.033081 370.079681,725.426514 371.309204,726.055664
	C373.749542,721.786316 372.139923,718.098999 369.938995,714.917419
	C366.144012,709.431580 360.651123,706.562622 353.935669,706.022949
	C349.021057,705.627991 344.513977,698.242065 346.319427,693.696411
	C347.005737,691.968445 348.622833,692.022400 350.091400,691.826111
	C363.884705,689.982666 380.947754,700.305908 386.563110,713.890320
	C391.996674,727.034851 387.909515,739.905090 375.141724,749.862793
	C374.879547,750.067261 374.634857,750.294067 374.165344,750.766479
	C373.948730,751.022461 373.988281,750.995911 374.005402,750.979370
M344.843018,722.718933
	C343.456451,722.240173 342.672546,722.786499 342.231873,724.135254
	C340.557068,729.261230 343.636383,735.462952 349.419586,738.541138
	C355.591919,741.826294 361.549164,740.884583 365.645386,735.462158
	C358.891785,731.307556 352.184113,727.181152 344.843018,722.718933
z"/>
<path fill="#000000" opacity="1.000000" stroke="none"
	d="
M361.313904,711.302490
	C363.576965,713.959045 366.862396,715.302246 367.788483,719.417419
	C360.248840,717.701294 355.465973,711.911865 348.228363,709.364136
	C353.236053,708.309387 357.254150,709.110046 361.313904,711.302490
z"/>
<path fill="#000000" opacity="1.000000" stroke="none"
	d="
M528.202026,739.095337
	C534.048462,736.372253 536.474731,737.219238 538.608948,742.821533
	C535.904846,742.531799 533.733032,740.680481 530.917419,741.461487
	C528.316223,742.183105 526.236267,743.573181 523.578735,745.725220
	C523.955688,742.092468 525.856079,740.631653 528.202026,739.095337
z"/>
<path fill="#000000" opacity="1.000000" stroke="none"
	d="
M246.100464,606.270752
	C239.678467,608.763550 234.171066,612.551758 227.685471,613.960510
	C226.542099,614.208923 226.588715,615.710144 225.875839,616.140503
	C223.717926,617.443237 221.405579,618.879089 220.279572,614.776917
	C219.871902,613.291748 219.575699,611.765320 218.536057,610.279968
	C214.257355,604.166992 211.759521,596.928528 214.063675,589.896545
	C215.511414,585.478333 217.485001,580.086365 223.785934,578.343994
	C227.133789,577.418213 230.249619,576.042725 233.892654,575.574646
	C245.011520,574.146301 251.117706,582.962402 254.652695,590.425049
	C256.096344,593.472717 259.390594,596.120117 258.431366,600.306641
	C255.069992,603.297058 250.430176,604.038574 246.100464,606.270752
z"/>
<path fill="#000000" opacity="1.000000" stroke="none"
	d="
M779.005798,383.774353
	C785.936157,384.666168 789.949707,388.920746 789.907959,394.868469
	C789.870728,400.165741 786.065674,404.176117 780.212708,405.150452
	C775.328491,405.963531 772.368225,403.236786 770.025452,399.550842
	C767.851990,396.131256 767.990540,392.887024 770.535400,389.471283
	C772.671814,386.603821 774.457458,383.656830 779.005798,383.774353
z"/>
<path fill="#000000" opacity="1.000000" stroke="none"
	d="
M782.553528,622.603882
	C777.440430,627.383484 772.134521,627.552551 766.488953,623.537659
	C765.253235,622.658813 764.721497,621.644287 764.708374,620.230469
	C764.688293,618.071350 764.948730,615.866882 764.603638,613.761475
	C763.540527,607.275818 767.795166,604.806824 772.581726,602.521912
	C777.134766,600.348511 780.165405,603.313599 783.142090,605.711548
	C788.642761,610.142700 788.781921,612.796814 784.613159,618.780884
	C783.863281,619.857178 783.409668,621.139893 782.553528,622.603882
z"/>
<path fill="#000000" opacity="1.000000" stroke="none"
	d="
M227.730453,504.940491
	C232.761032,508.015778 235.395004,517.223755 233.122452,522.608643
	C232.898911,523.138306 232.384277,523.772400 231.883545,523.906860
	C231.047150,524.131531 230.299438,523.673218 229.918686,522.808289
	C229.178192,521.126221 229.272659,519.324707 229.554657,517.594299
	C227.618942,517.315918 228.791229,519.427368 227.081741,519.299744
	C226.652756,514.652954 225.908539,509.863556 227.730453,504.940491
z"/>
<path fill="#000000" opacity="1.000000" stroke="none"
	d="
M482.382019,195.170776
	C484.059662,188.127243 488.223877,184.507126 493.650726,185.017914
	C499.125458,185.533234 502.912994,189.365616 503.269714,194.750854
	C503.671783,200.821777 499.697662,205.760849 493.969116,206.309708
	C487.653076,206.914856 483.305145,202.887619 482.382019,195.170776
z"/>
<path fill="#000000" opacity="1.000000" stroke="none"
	d="
M817.786438,476.351685
	C816.019409,477.130646 814.608032,477.883453 813.193481,478.630096
	C811.394470,475.661438 811.153503,472.916199 812.068237,466.027069
	C818.416321,464.927307 823.223877,470.596558 829.215088,469.787506
	C830.458374,470.460938 829.851379,471.424133 830.088684,472.156036
	C825.983337,473.192993 822.444153,475.852234 817.786438,476.351685
z"/>
<path fill="#000000" opacity="1.000000" stroke="none"
	d="
M681.432495,246.004639
	C680.584106,244.677109 680.618591,243.578644 681.270203,242.504608
	C685.531128,242.189941 689.597900,242.494949 692.656128,245.989777
	C694.165283,247.714233 695.249207,250.043228 693.402283,251.654495
	C692.112732,252.779495 689.695679,253.609879 687.956848,250.897980
	C686.549683,248.703262 683.157288,248.655792 681.432495,246.004639
z"/>
<path fill="#000000" opacity="1.000000" stroke="none"
	d="
M329.385284,241.291260
	C333.612640,246.293579 332.982269,252.676529 327.936920,257.291534
	C321.951447,262.766479 317.806305,262.713226 312.768768,256.442017
	C310.564728,253.698196 306.302216,252.643951 306.527008,247.690842
	C306.851227,240.546432 310.988678,235.738815 318.287384,235.782379
	C322.626923,235.808289 326.805267,236.722031 329.385284,241.291260
z"/>
<path fill="#000000" opacity="1.000000" stroke="none"
	d="
M270.215637,313.287720
	C261.734863,311.982666 256.885315,303.633636 258.826172,295.988770
	C260.103882,290.956024 268.314819,287.674500 273.187653,289.669037
	C275.651215,290.677460 277.463867,292.290649 279.542450,293.733917
	C283.535522,296.506561 285.604523,300.224396 284.067993,304.649353
	C282.537292,309.057587 278.887604,312.065125 274.131714,313.200989
	C273.025482,313.465240 271.811035,313.276398 270.215637,313.287720
z"/>
<path fill="#000000" opacity="1.000000" stroke="none"
	d="
M375.596313,201.148041
	C373.410736,201.360031 371.588104,201.218979 370.270355,202.984741
	C368.782745,204.978088 366.785095,204.173874 364.881805,203.959213
	C365.139252,199.171494 371.126587,193.734039 375.113281,194.829453
	C379.419250,196.012604 377.941467,198.659653 375.596313,201.148041
z"/>
<path fill="#000000" opacity="1.000000" stroke="none"
	d="
M640.449829,192.001678
	C645.407043,191.188385 649.529846,191.647491 651.909912,196.705460
	C649.818970,199.433151 646.798889,197.773285 643.741882,198.571869
	C644.731506,193.572922 640.406677,194.784363 638.180359,193.553543
	C638.493469,192.349289 639.417847,192.379974 640.449829,192.001678
z"/>
<path fill="#000000" opacity="1.000000" stroke="none"
	d="
M641.001099,727.217529
	C643.044983,723.773376 643.971375,719.622559 648.980530,719.714600
	C651.786987,719.766113 652.454224,721.120911 652.174683,723.486206
	C651.811646,726.558105 643.653076,729.541931 641.001099,727.217529
z"/>
<path fill="#000000" opacity="1.000000" stroke="none"
	d="
M570.271606,152.587677
	C572.161255,152.580322 573.690918,152.868637 575.144714,152.650696
	C581.397400,151.713211 585.653809,154.860779 589.388733,159.274643
	C593.109680,163.671951 590.932007,170.325027 585.389526,172.288498
	C578.802124,174.622147 572.525574,170.994843 566.234192,172.310532
	C564.093201,164.712143 567.084656,158.701172 570.271606,152.587677
z"/>
<path fill="#000000" opacity="1.000000" stroke="none"
	d="
M213.661896,388.279938
	C214.415070,383.393799 217.379089,380.719391 222.611725,379.779327
	C223.395004,380.861664 223.473663,382.189972 222.454620,382.885834
	C219.905624,384.626434 220.361816,387.144775 220.274643,389.584808
	C220.222839,391.035309 220.778458,392.850555 219.397583,393.748749
	C218.094330,394.596527 217.085312,396.526886 215.223282,395.950836
	C213.119965,395.300110 213.821869,393.249451 213.682755,391.695374
	C213.594635,390.711060 213.663712,389.712646 213.661896,388.279938
z"/>
<path fill="#000000" opacity="1.000000" stroke="none"
	d="
M302.917786,694.129517
	C299.246826,694.038391 291.809906,688.064941 290.460938,684.523254
	C288.495636,679.363525 290.482910,675.506897 294.577789,672.555603
	C296.473480,671.189392 297.422516,668.826477 300.457916,668.549988
	C307.491272,667.909607 312.877228,670.437012 315.696259,676.751526
	C316.973236,679.611938 313.841705,681.088684 313.207001,683.416565
	C312.226837,687.011536 310.414490,690.151367 306.244812,690.703613
	C304.097412,690.988037 304.515778,693.225952 302.917786,694.129517
z"/>
<path fill="#000000" opacity="1.000000" stroke="none"
	d="
M351.027039,729.915833
	C354.328918,732.209290 358.203186,733.364075 359.557648,737.388428
	C353.487823,739.147034 347.131378,735.203430 346.164246,729.191284
	C347.895477,727.591492 349.179779,729.594849 351.027039,729.915833
z"/>
</svg>
