<svg version="1.1" id="Layer_1" xmlns="http://www.w3.org/2000/svg" x="0px" y="0px"
	 width="100%" viewBox="0 0 1024 1024" enable-background="new 0 0 1024 1024" xml:space="preserve">
<path fill="#000000" opacity="1.000000" stroke="none"
	d="
M824.650879,470.060974
	C824.650757,466.944977 824.650757,464.309631 824.650757,461.844635
	C827.406921,460.910065 829.122803,462.226318 830.870056,463.002197
	C856.448669,474.360687 881.968628,485.852081 907.594788,497.101715
	C911.836548,498.963806 912.903809,501.517975 913.554626,506.065918
	C915.184265,517.454468 910.476685,522.677246 900.058289,526.799744
	C878.704346,535.249207 857.988281,545.310913 837.016235,554.723633
	C835.378784,555.458557 833.588745,555.987549 832.316040,557.518372
	C833.708130,559.219666 835.659973,559.211060 837.352966,559.668762
	C852.938965,563.881592 868.517944,568.125305 884.156006,572.137573
	C887.865845,573.089478 889.318237,574.583313 887.922485,578.403625
	C887.012451,580.894531 886.379395,583.511047 885.874695,586.120117
	C885.062683,590.317688 883.718567,593.596008 877.747986,591.161194
	C880.619202,599.106750 881.167114,606.420471 879.332458,613.868347
	C875.548767,629.227844 863.567017,637.772827 847.982727,634.745361
	C834.611938,632.147888 821.535095,628.050171 808.301880,624.720459
	C805.358582,623.979858 805.190674,622.152100 805.801697,619.818909
	C806.771057,616.117188 808.029480,612.475098 808.746399,608.727600
	C809.500366,604.786499 811.414795,604.031494 815.089111,605.059204
	C824.229309,607.615784 833.448669,609.889954 842.638184,612.270020
	C844.089661,612.645935 845.541626,613.031067 847.010193,613.328674
	C854.974121,614.942688 860.413574,612.326416 862.882446,605.725281
	C865.697937,598.197449 863.298767,590.904907 856.588440,587.131531
	C850.839661,583.898926 844.276123,583.118469 838.049377,581.346375
	C832.604675,579.796936 827.086182,578.504944 821.593506,577.126404
	C818.661926,576.390625 817.270203,574.918762 818.468933,571.713928
	C820.487427,566.316895 821.263428,560.609497 823.988281,555.279297
	C825.764160,551.805481 824.798767,546.784790 824.579895,542.481628
	C824.396729,538.880249 825.646423,536.548950 829.102905,535.890564
	C841.778931,533.476440 845.394836,525.621460 843.721558,513.548828
	C842.837708,507.171661 843.455078,500.567749 843.621094,494.072021
	C843.696777,491.112213 842.636658,489.344025 839.823120,488.484375
	C838.394409,488.047821 837.025452,487.406860 835.645935,486.819550
	C822.271973,481.125641 824.996765,484.386810 824.650879,470.060974
M887.691162,508.463959
	C878.556885,504.729065 869.422668,500.994141 859.825684,497.070038
	C859.825684,505.914825 859.825684,513.927673 859.825684,522.961670
	C869.970764,518.771729 879.454895,514.947815 888.847168,510.910309
	C891.197021,509.900146 888.976196,509.356079 887.691162,508.463959
z"/>
<path fill="#000000" opacity="1.000000" stroke="none"
	d="
M406.475464,842.567505
	C406.075836,839.665466 405.739380,837.203064 405.291260,833.923584
	C404.064880,835.634888 403.084930,836.835388 402.283905,838.145386
	C393.248352,852.922363 384.062836,867.612610 375.333069,882.568604
	C372.727753,887.032043 369.996277,888.310730 365.303497,886.411072
	C361.356781,884.813477 356.761444,885.144348 353.112091,882.664429
	C352.871002,880.061890 354.612427,878.476685 355.695831,876.696716
	C369.637665,853.791504 383.735474,830.980591 397.571930,808.012146
	C399.889954,804.164246 402.280884,803.064392 406.490173,804.557800
	C410.075165,805.829712 413.860687,806.711731 417.631226,807.238525
	C421.784393,807.818726 423.049316,810.032532 423.325928,813.948669
	C424.567474,831.526367 426.037140,849.088074 427.447418,866.653625
	C427.468933,866.922180 427.782318,867.167297 428.360870,868.003357
	C433.188690,860.383484 437.893280,853.016113 442.538330,845.611328
	C447.582672,837.569946 452.694244,829.566284 457.525208,821.397583
	C459.485168,818.083557 461.678467,817.198608 465.331848,818.389709
	C469.433533,819.727112 473.683319,820.670166 477.924438,821.499390
	C480.815674,822.064758 482.115143,823.333862 482.364624,826.426331
	C484.612427,854.289246 487.016418,882.139526 489.346924,909.995850
	C489.480560,911.593201 490.013885,913.287292 488.542847,915.268494
	C482.743439,913.869019 476.796936,912.503662 470.891449,910.979309
	C468.016937,910.237366 467.983917,907.735901 467.807281,905.351440
	C466.442444,886.926453 465.047577,868.503784 463.649872,850.081299
	C463.614594,849.616638 463.439911,849.162598 463.098297,847.732849
	C459.045654,854.194702 455.369629,860.003418 451.746307,865.844788
	C445.162109,876.459656 438.535309,887.049316 432.091827,897.749268
	C430.338898,900.660156 428.483490,901.307373 425.135132,900.504028
	C410.735748,897.049133 410.699036,897.171326 409.551361,882.337891
	C408.537048,869.228455 407.542114,856.117432 406.475464,842.567505
z"/>
<path fill="#000000" opacity="1.000000" stroke="none"
	d="
M153.090698,684.838257
	C149.279312,675.933899 145.061279,667.625244 143.312347,658.319458
	C139.823563,639.756348 148.064377,621.778625 164.573090,612.654419
	C182.459915,602.768555 202.275558,604.992554 216.297470,618.479370
	C221.893692,623.862122 226.160797,630.182983 229.294952,637.265869
	C234.146332,648.229614 238.844742,659.262817 243.840622,670.159851
	C245.295807,673.333923 244.751205,674.870483 241.572052,676.264404
	C217.325867,686.895752 193.103821,697.583740 168.956696,708.437500
	C165.335709,710.065186 163.659500,709.427185 162.207382,705.796692
	C159.426407,698.843933 156.259781,692.045471 153.090698,684.838257
M167.611801,673.960876
	C169.297211,676.941650 169.846985,680.547058 172.597290,683.388977
	C188.585342,676.249023 204.440979,669.168152 220.632278,661.937439
	C216.527573,653.354065 214.201126,644.708374 208.726913,637.639282
	C202.135574,629.127563 193.206360,626.216553 182.943283,628.744751
	C172.473587,631.323914 164.595810,637.124756 161.959396,648.434509
	C159.816284,657.627991 163.800781,665.362549 167.611801,673.960876
z"/>
<path fill="#000000" opacity="1.000000" stroke="none"
	d="
M759.113281,658.421448
	C763.840271,643.848389 771.718811,632.026245 784.050476,623.362854
	C787.525635,620.921448 790.214722,620.596130 792.317261,625.090271
	C793.843506,628.352844 796.632935,630.969543 797.649719,634.976990
	C793.539429,637.711304 789.219482,640.195679 785.893738,643.973877
	C781.756165,648.674255 778.593933,653.843018 777.106812,659.988098
	C775.239258,667.704773 778.676758,674.105835 786.468933,677.243042
	C788.358582,654.832031 798.836060,640.906738 815.450928,638.723938
	C830.904724,636.693787 846.348877,645.516663 851.685486,659.423950
	C857.976746,675.818848 851.468689,691.331909 832.643555,704.091858
	C838.123474,706.443481 836.567322,709.740112 834.415771,713.589355
	C828.163269,724.775085 828.297729,724.787598 816.993347,718.456604
	C804.071106,711.219360 791.099915,704.069397 778.139160,696.901123
	C774.182678,694.712891 770.548340,692.099121 767.287964,688.966858
	C758.541138,680.563782 756.060425,670.438599 759.113281,658.421448
M802.292480,672.871948
	C801.892517,674.981018 801.215881,677.040771 801.555969,679.254883
	C802.814758,687.448547 810.943359,693.969666 818.910461,693.129395
	C827.866638,692.184814 835.228027,683.161133 834.696716,673.778381
	C834.227112,665.484924 827.335510,658.997620 818.839355,659.077881
	C810.063293,659.160767 805.542725,664.773865 802.292480,672.871948
z"/>
<path fill="#000000" opacity="1.000000" stroke="none"
	d="
M584.536011,116.355225
	C595.353271,118.666046 605.996521,120.043663 615.044556,126.455368
	C625.262085,133.695724 629.743835,143.520264 628.158142,155.812408
	C626.640564,167.576553 620.677002,176.417465 609.202393,180.623856
	C605.662598,181.921478 604.900513,183.301208 606.512695,186.763977
	C609.884644,194.006531 612.910156,201.411819 615.999451,208.783127
	C616.550110,210.097107 617.684570,211.348892 616.675781,213.821350
	C610.250732,212.502106 603.634521,211.233536 597.070435,209.736069
	C595.308899,209.334198 594.814514,207.408600 594.167847,205.877441
	C591.446655,199.433624 588.658203,193.016342 586.063599,186.521759
	C584.774963,183.296234 582.908936,181.374847 579.210938,180.976288
	C575.128113,180.536270 571.116150,179.438049 566.532410,178.517929
	C565.076416,185.285812 563.549194,191.555450 562.435303,197.897659
	C561.844360,201.262726 560.753906,202.543625 557.147888,201.494553
	C553.009766,200.290665 548.705139,199.650223 544.462830,198.816422
	C541.621948,198.258072 540.737915,196.901550 541.378845,193.871445
	C546.917847,167.683807 552.336487,141.470490 557.694702,115.245140
	C558.375183,111.914375 560.156494,111.374992 563.085632,111.998238
	C570.082397,113.486954 577.106140,114.848953 584.536011,116.355225
M582.223083,164.067719
	C585.487976,164.593323 588.746155,165.508987 592.019104,165.565125
	C599.323792,165.690414 605.102417,161.001801 606.507812,154.320068
	C608.122314,146.643982 605.280640,141.173462 597.782593,137.964722
	C591.941833,135.465225 585.610657,134.779190 579.469727,133.412155
	C576.827271,132.823914 575.609131,134.107773 575.174072,136.819534
	C574.413391,141.561172 573.238159,146.234818 572.308411,150.951111
	C570.128235,162.011139 570.145447,162.014526 582.223083,164.067719
z"/>
<path fill="#000000" opacity="1.000000" stroke="none"
	d="
M273.402405,799.402771
	C266.914185,805.894836 260.602631,812.066345 254.481049,818.420898
	C252.207764,820.780701 250.654175,820.629395 248.315613,818.421692
	C236.368759,807.143494 236.275406,807.158691 247.918961,795.614197
	C251.317108,792.244934 255.018127,789.181213 258.334503,785.295837
	C246.149597,782.564941 238.164276,775.564331 232.962769,765.259338
	C229.800217,758.993835 228.780319,752.277954 230.299530,745.355347
	C233.984665,728.563171 249.311493,715.186584 265.596527,715.162903
	C280.037720,715.141846 295.549927,724.346191 299.691620,743.916626
	C303.676056,740.136963 306.258759,742.500122 308.845917,745.699219
	C310.511932,747.759216 312.450378,749.645752 314.484375,751.350342
	C317.577728,753.942566 317.076935,755.937683 314.352600,758.614746
	C300.695404,772.035339 287.204132,785.624756 273.402405,799.402771
M283.766418,745.032593
	C279.562134,737.580933 273.862427,734.405518 266.357635,735.333923
	C259.745667,736.151917 252.049561,742.874451 250.519135,749.575623
	C249.057693,755.974731 250.244522,761.803650 255.396530,766.356201
	C259.799408,770.246887 264.837616,771.853882 270.582947,770.027100
	C281.253784,766.633972 286.699493,756.746887 283.766418,745.032593
z"/>
<path fill="#000000" opacity="1.000000" stroke="none"
	d="
M275.889252,292.099976
	C264.121216,278.694336 252.577454,265.562378 241.039337,252.425491
	C236.780167,247.576126 236.814270,247.475189 241.939163,243.131943
	C243.716324,241.625839 245.540512,240.129745 247.073685,238.391373
	C249.669769,235.447769 252.218246,234.137741 255.333832,238.234314
	C262.484894,219.147217 275.179596,208.681915 295.792145,212.107712
	C310.918671,214.621719 323.567474,229.719269 324.946869,245.649811
	C325.725739,254.645309 322.662140,262.683502 316.775421,269.593170
	C311.063324,276.297852 303.628845,279.985992 294.157074,281.637085
	C299.751526,288.104401 304.502655,294.057159 309.766998,299.514984
	C313.081696,302.951477 312.440704,304.928589 309.143524,307.869354
	C298.196716,317.632843 298.308289,317.746338 288.634247,306.644562
	C284.476807,301.873535 280.289490,297.128540 275.889252,292.099976
M296.553009,234.861252
	C288.936218,229.949905 281.749390,229.975647 275.859467,234.935379
	C265.213074,243.900436 269.011932,260.512787 282.892426,265.690247
	C293.273285,269.562347 304.505035,261.902405 304.788971,250.852859
	C304.958099,244.273407 301.694824,239.494431 296.553009,234.861252
z"/>
<path fill="#000000" opacity="1.000000" stroke="none"
	d="
M321.412964,837.915527
	C307.982697,832.553467 298.854095,823.842285 296.345184,809.481018
	C294.643951,799.742615 297.710754,791.138733 303.072113,783.118469
	C305.027893,780.192810 306.893341,781.507507 308.951752,782.772949
	C319.725800,789.396362 330.503998,796.013062 341.296265,802.606750
	C343.387421,803.884338 345.313324,805.556580 348.223785,805.805847
	C350.007263,800.732849 348.723541,796.285278 345.489838,792.422058
	C340.444366,786.394348 334.069275,782.536865 325.976318,783.159851
	C321.712585,783.487976 320.234985,781.724976 319.847382,778.001038
	C319.710022,776.680908 319.408844,775.376587 319.156952,774.069946
	C317.847656,767.278625 318.200104,766.800659 325.182922,765.956421
	C349.485626,763.018005 373.774719,790.545227 367.207184,813.909546
	C361.790558,833.179321 342.769379,845.176453 321.412964,837.915527
M339.837738,819.779236
	C342.090668,818.017761 340.576233,817.095642 339.044159,816.147644
	C334.516754,813.346375 330.043915,810.453247 325.460083,807.747925
	C322.105652,805.768250 319.116058,803.036987 315.175720,802.030579
	C312.920746,809.520020 314.705505,815.207520 320.432220,819.513550
	C326.712097,824.235596 332.727356,824.461060 339.837738,819.779236
z"/>
<path fill="#000000" opacity="1.000000" stroke="none"
	d="
M179.374207,599.903381
	C147.217163,604.909790 132.238327,575.949158 137.806061,553.691345
	C141.135086,540.383057 154.189331,529.446899 167.699661,528.679565
	C171.011200,528.491394 172.860764,529.262634 173.384720,533.090149
	C175.190079,546.278076 177.365311,559.415405 179.406509,572.570923
	C179.660126,574.205444 179.918594,575.846497 181.379623,577.691711
	C186.113251,575.650208 188.923584,571.960205 189.637390,566.989502
	C190.821167,558.745728 189.561752,550.969666 183.259872,544.839417
	C181.301773,542.934631 181.005798,541.390442 182.985214,539.381104
	C184.263947,538.082947 185.321732,536.560913 186.430099,535.102417
	C190.854584,529.279846 191.482452,529.228455 196.538010,534.372559
	C210.016785,548.087463 211.012177,574.519226 198.555939,589.103455
	C193.603516,594.901855 187.207718,598.254883 179.374207,599.903381
M153.053299,561.336304
	C151.609055,572.091980 158.240280,580.775574 167.791733,579.800720
	C166.872864,569.733765 164.933014,559.863220 163.069061,549.652588
	C157.190735,551.655396 154.325394,555.353516 153.053299,561.336304
z"/>
<path fill="#000000" opacity="1.000000" stroke="none"
	d="
M183.732330,427.267822
	C183.354004,428.864716 182.789917,430.130432 183.480865,431.373199
	C196.725815,431.328552 203.068069,414.813385 200.071671,405.481049
	C198.101959,399.346283 199.994507,397.029388 205.108749,395.271423
	C206.512985,394.788757 207.850327,394.046295 209.127457,393.272949
	C211.607101,391.771454 213.091751,392.666962 214.283005,395.032318
	C216.990250,400.407684 217.858490,406.144104 217.272781,412.017578
	C215.663177,428.158752 209.715149,442.095062 193.939774,448.829071
	C180.823547,454.427948 167.980453,452.170502 157.145081,442.593658
	C145.876740,432.634125 143.277740,419.813049 147.073486,405.730927
	C152.631302,385.111633 170.837860,374.724670 190.411743,380.570557
	C196.324036,382.336273 196.580612,382.786652 194.911850,388.585968
	C191.233658,401.368500 187.550568,414.149597 183.732330,427.267822
M163.977875,405.634918
	C159.511536,416.273163 161.745331,424.304291 170.643906,427.428162
	C173.347412,417.946747 176.039276,408.506195 178.854263,398.633850
	C171.775116,397.088745 167.780273,400.426270 163.977875,405.634918
z"/>
<path fill="#000000" opacity="1.000000" stroke="none"
	d="
M193.752838,314.004639
	C194.831436,293.903839 209.620651,276.938507 227.722855,274.582001
	C251.667786,271.464905 272.010315,293.821472 266.079315,317.183441
	C262.514557,331.224915 254.084351,341.851929 240.190460,346.781738
	C217.831345,354.715210 194.783615,338.428131 193.752838,314.004639
M246.326294,304.376648
	C244.182541,300.877502 241.199951,298.280029 237.591339,296.402405
	C231.720337,293.347626 225.806274,292.857056 220.139206,296.766998
	C212.728699,301.879883 210.485123,311.364990 214.745941,318.788666
	C219.427948,326.946198 230.670868,331.188538 238.376999,327.705475
	C246.950150,323.830536 250.199707,314.947083 246.326294,304.376648
z"/>
<path fill="#000000" opacity="1.000000" stroke="none"
	d="
M661.734375,235.578430
	C644.953918,231.936142 632.072876,223.801376 627.134155,207.001862
	C623.100525,193.281296 627.448669,181.145630 637.854065,171.736862
	C648.414307,162.188049 660.905884,160.391190 674.168701,165.579208
	C695.457520,173.906738 703.921936,193.944733 694.660217,213.693268
	C691.979309,219.409775 691.715027,219.508331 686.176331,216.866852
	C674.309387,211.207443 662.446289,205.539993 650.569580,199.901337
	C649.251404,199.275513 647.997314,198.321198 645.941284,198.735901
	C644.257324,203.431046 646.279358,207.481369 649.248901,210.763992
	C655.011169,217.133652 662.232056,220.545853 671.067688,219.018234
	C673.851990,218.536850 675.610779,219.133545 676.348206,221.982132
	C676.555908,222.784424 676.915222,223.546204 677.175110,224.336426
	C680.479553,234.382965 679.372742,235.962723 668.601929,236.217270
	C666.460632,236.267853 664.308655,235.863617 661.734375,235.578430
M675.154358,184.342697
	C665.875244,177.152252 656.021179,177.904236 651.743347,186.459854
	C660.760681,190.796310 669.768311,195.128098 679.267395,199.696198
	C680.718689,193.495789 679.624329,188.821899 675.154358,184.342697
z"/>
<path fill="#000000" opacity="1.000000" stroke="none"
	d="
M355.280396,239.557495
	C340.872192,241.767578 327.019775,234.686615 320.278870,221.965912
	C312.853668,207.953903 314.743408,192.308380 325.201752,181.207993
	C339.975006,165.527802 363.609161,164.413284 377.397888,178.748001
	C377.859680,179.228119 378.328613,179.704071 378.756683,180.213531
	C387.866913,191.055435 387.562103,192.645889 375.306244,199.099060
	C365.728699,204.142014 356.176575,209.233307 346.618042,214.312302
	C345.178711,215.077087 343.578125,215.644073 342.428619,217.433990
	C345.412811,221.569244 349.774475,222.742554 354.225006,222.232925
	C362.574310,221.276871 369.500916,217.413666 373.528381,209.716171
	C375.087311,206.736679 376.736969,205.740402 379.793915,207.209213
	C380.835938,207.709900 381.998199,207.958084 383.100800,208.335480
	C391.532532,211.221542 392.076202,212.431885 387.065369,220.150574
	C379.707153,231.485046 368.643372,237.061050 355.280396,239.557495
M347.285095,199.727371
	C352.438049,196.929855 357.591034,194.132339 362.873779,191.264343
	C356.884430,184.169662 348.505981,183.393250 341.331421,188.589310
	C335.111694,193.093857 332.885193,199.922165 336.178711,205.557953
	C339.639038,203.732697 343.128296,201.892166 347.285095,199.727371
z"/>
<path fill="#000000" opacity="1.000000" stroke="none"
	d="
M721.186157,226.709534
	C726.956421,230.952255 732.409058,235.011444 737.835754,239.051285
	C741.964600,234.624008 741.931213,229.083176 737.674133,224.303177
	C732.844849,218.880783 726.677673,215.579300 719.553406,214.546234
	C715.588867,213.971344 715.140930,212.138550 715.754089,208.774551
	C717.961243,196.665512 718.828979,196.145172 730.356812,200.529373
	C739.878601,204.150681 748.245361,209.475311 754.705872,217.424774
	C763.132996,227.794205 764.008423,239.314133 756.274536,250.161285
	C748.452332,261.132385 739.732422,271.462250 731.450439,282.107788
	C729.977783,284.000671 728.594360,283.982025 726.839661,282.538330
	C724.138977,280.316284 721.469849,278.021210 718.566162,276.089417
	C714.967529,273.695251 714.147766,271.244995 718.181763,268.029816
	C704.324219,267.904633 695.068420,261.164307 688.812195,250.062698
	C684.517517,242.441956 685.587341,234.622360 691.054321,228.225006
	C696.588257,221.749298 703.874023,219.800552 712.294006,222.511627
	C715.325989,223.487869 718.174805,224.836624 721.186157,226.709534
M729.858276,249.696625
	C725.905884,245.360748 721.227112,241.912857 716.167236,239.043381
	C713.602966,237.589111 710.661987,237.354614 708.225586,239.537018
	C706.286682,241.273880 705.012939,243.512543 705.890686,246.215103
	C707.859375,252.276428 712.671387,255.203140 718.453247,256.388947
	C723.638672,257.452423 727.459656,254.997314 729.858276,249.696625
z"/>
<path fill="#000000" opacity="1.000000" stroke="none"
	d="
M684.195740,777.277344
	C700.730469,782.952026 704.418762,800.145142 691.963013,811.760559
	C686.770569,816.602783 680.347839,819.463074 674.199768,822.775452
	C672.055237,823.930847 669.515198,824.551941 668.067505,826.752014
	C670.684082,831.883850 675.200134,833.928528 680.896179,832.329407
	C687.885986,830.367188 693.326294,826.106079 697.676086,820.379639
	C698.664795,819.077942 699.608948,817.742310 700.678833,816.278442
	C705.206238,817.930420 708.422913,821.128967 712.023560,823.710693
	C713.595947,824.838135 713.084473,826.203918 712.387146,827.687378
	C706.692261,839.802368 684.125427,852.694092 670.869629,851.617249
	C662.141846,850.908203 655.508850,846.569702 651.317322,839.410156
	C644.346375,827.503235 638.209595,815.108826 631.673157,802.945618
	C630.423950,800.620972 631.171021,799.236450 633.348267,798.161987
	C636.183533,796.762756 638.983704,795.290710 641.778076,793.810547
	C644.783936,792.218445 647.870117,789.614380 649.781799,795.571350
	C657.950012,782.343689 668.682678,775.558228 684.195740,777.277344
M659.499817,803.160400
	C657.963318,806.396912 657.956726,809.547241 659.988220,812.606689
	C660.759033,813.767456 661.617798,814.952698 663.172668,814.179382
	C668.347046,811.606018 674.003540,809.786011 678.132080,805.489746
	C679.994507,803.551758 681.349304,801.252930 679.901367,798.301697
	C678.496826,795.438721 676.279541,794.092407 673.137451,794.195312
	C667.103149,794.392883 662.906433,797.545349 659.499817,803.160400
z"/>
<path fill="#000000" opacity="1.000000" stroke="none"
	d="
M796.130920,754.876160
	C787.936401,747.271545 780.252991,739.605713 771.985962,732.631653
	C763.272583,725.281006 752.935913,728.778931 749.846069,739.734863
	C747.963928,746.408630 751.378296,751.385193 755.813293,755.705933
	C761.897461,761.633301 768.201294,767.335083 774.410950,773.133606
	C775.750488,774.384338 777.062927,775.665710 778.436646,776.877808
	C780.267761,778.493469 780.560120,780.129272 778.762451,781.982483
	C775.398926,785.450195 772.049988,788.932434 768.734985,792.446472
	C767.136963,794.140320 765.867798,793.404175 764.497375,792.124512
	C749.643250,778.252747 734.796753,764.372620 719.881226,750.566956
	C717.462158,748.327881 717.589355,746.531677 719.859985,744.340149
	C722.013733,742.261353 724.078308,740.055786 725.930176,737.707397
	C728.268616,734.741821 730.676270,733.007996 733.948303,736.073120
	C736.213196,734.804504 735.693420,732.679932 736.133484,731.027466
	C739.332520,719.015930 750.012939,709.209412 761.942200,707.417908
	C768.257324,706.469482 773.715088,708.722168 778.973938,711.800049
	C783.039856,714.179504 786.360840,717.476929 789.782654,720.643005
	C796.874207,727.204773 803.878906,733.862183 811.054443,740.330383
	C813.561401,742.590149 813.939270,744.405762 811.384827,746.866211
	C808.750244,749.403870 806.243103,752.106567 803.941772,754.948730
	C801.357483,758.140320 798.983521,758.490234 796.130920,754.876160
z"/>
<path fill="#000000" opacity="1.000000" stroke="none"
	d="
M745.613525,291.937744
	C744.702087,275.436615 756.797119,262.822235 768.130127,258.683960
	C781.875000,253.664963 797.772522,257.892273 808.076843,269.498260
	C815.596619,277.968018 819.984375,287.553009 818.157349,299.199921
	C817.061279,306.187103 815.844299,306.885162 809.475647,304.403015
	C808.854858,304.161102 808.242126,303.898346 807.624451,303.648346
	C799.860046,300.505829 799.859924,300.505951 799.848755,292.437378
	C799.838928,285.361664 794.943970,278.766479 788.161377,276.690613
	C781.005737,274.500549 771.925110,278.083679 767.291504,285.053467
	C763.811218,290.288391 763.040283,295.874115 765.910767,301.626770
	C768.984619,307.787231 774.009766,311.548279 780.934753,311.468536
	C784.547241,311.426941 785.633667,312.908508 786.146606,315.835968
	C786.634460,318.620544 786.824280,321.508453 787.714600,324.159729
	C789.133301,328.384186 787.025330,329.540710 783.494751,329.975800
	C778.885498,330.543884 774.429443,329.661285 770.357422,327.762573
	C755.368530,320.773285 747.098755,308.927948 745.613525,291.937744
z"/>
<path fill="#000000" opacity="1.000000" stroke="none"
	d="
M197.474945,503.541748
	C175.811920,511.134521 154.525604,518.594849 132.219498,526.412537
	C132.454086,518.981628 132.190567,512.611633 133.574219,506.367371
	C134.050369,504.218628 136.636505,504.032867 138.484024,503.402557
	C149.972855,499.483002 161.479919,495.616974 172.975769,491.717926
	C174.515701,491.195648 176.026398,490.587189 177.607605,489.997375
	C176.986862,488.066254 175.356583,487.860260 174.110794,487.241547
	C162.488403,481.469574 150.867798,475.692688 139.186142,470.042389
	C136.639267,468.810516 135.265121,467.328156 135.578979,464.309448
	C136.088577,459.408295 135.453537,454.386841 136.684860,449.757599
	C138.968704,448.795776 140.346283,449.946899 141.776489,450.652649
	C160.722366,460.001526 179.613754,469.462494 198.629303,478.667114
	C202.407730,480.496094 203.983643,482.844299 203.047180,486.863708
	C202.245438,490.304993 202.214966,493.808380 202.342606,497.293427
	C202.465088,500.637390 201.175491,502.710785 197.474945,503.541748
z"/>
<path fill="#000000" opacity="1.000000" stroke="none"
	d="
M796.257690,334.170837
	C803.521057,330.043732 810.398315,325.963379 817.465576,322.243988
	C820.597778,320.595581 821.360657,318.794556 819.178101,316.061920
	C815.917908,311.980103 817.450378,309.576813 821.738281,307.892151
	C822.809448,307.471283 823.820374,306.822113 824.751465,306.132721
	C828.627319,303.262939 831.625122,303.347748 833.530334,308.377991
	C834.812805,311.764160 836.911316,311.553375 839.804810,309.931213
	C849.883240,304.280762 849.934937,304.372925 855.675415,314.609131
	C855.756836,314.754333 855.842773,314.897034 855.925903,315.041321
	C860.979492,323.813904 859.826599,322.254791 852.699829,326.269287
	C851.394714,327.004456 850.091248,327.751007 848.740417,328.394684
	C846.450562,329.485779 845.951599,331.039185 847.281799,333.212097
	C847.802368,334.062531 848.301086,334.938751 848.693115,335.853210
	C849.976746,338.847992 853.909790,341.753265 852.392883,344.638702
	C850.324402,348.573090 845.158936,349.601929 841.249512,351.720551
	C839.146301,352.860321 838.496094,350.649628 837.653137,349.290924
	C835.492493,345.808075 834.302979,341.706757 830.765747,338.385559
	C822.819397,342.891937 814.759888,347.188263 806.998840,351.969269
	C802.522766,354.726654 802.045349,358.858063 805.119812,363.130188
	C806.454224,364.984436 808.181885,366.555756 809.749878,368.276459
	C807.920593,372.131134 804.835754,374.766449 802.371887,377.868744
	C800.705505,379.966797 798.711304,379.351471 797.128784,377.907898
	C788.920776,370.420410 783.404846,361.643707 784.628235,349.947662
	C785.394287,342.623932 790.257629,338.167175 796.257690,334.170837
z"/>
<path fill="#000000" opacity="1.000000" stroke="none"
	d="
M760.403442,831.374817
	C757.316223,833.682983 754.432739,835.672607 751.741455,837.895020
	C749.465515,839.774353 747.846802,839.721924 745.993896,837.241211
	C728.866394,814.310059 711.699829,791.407715 694.437744,768.577820
	C692.258789,765.696045 692.814880,763.975281 695.567871,762.110229
	C698.594910,760.059509 701.543701,757.862244 704.332520,755.499634
	C707.041443,753.204712 708.864685,753.166687 711.180054,756.281006
	C727.958313,778.848572 744.840576,801.339722 761.853882,823.730408
	C764.369263,827.040771 764.399414,829.195740 760.403442,831.374817
z"/>
<path fill="#000000" opacity="1.000000" stroke="none"
	d="
M193.081024,346.835724
	C206.337265,353.121918 219.212021,359.344666 232.193481,365.336151
	C235.511780,366.867706 236.374115,368.532440 234.535507,371.805878
	C232.830414,374.841583 231.358322,378.036591 230.087585,381.280487
	C228.555237,385.192322 226.409988,385.507599 222.769226,383.757141
	C199.394928,372.518799 175.914581,361.501373 152.507675,350.330414
	C142.658646,345.630005 142.701401,345.540405 147.504089,335.631409
	C151.541290,327.301727 151.561737,327.258057 159.822220,331.126160
	C170.813263,336.272919 181.768555,341.496033 193.081024,346.835724
z"/>
<path fill="#000000" opacity="1.000000" stroke="none"
	d="
M414.100647,169.225861
	C412.314484,175.083679 414.445862,180.148392 415.882996,185.214264
	C418.014618,192.728302 420.381622,200.181107 422.865753,207.587082
	C423.970428,210.880676 423.117035,212.496109 419.776154,213.396881
	C401.042969,218.447784 405.804199,220.975647 399.953308,203.309540
	C395.039154,188.471725 390.920593,173.371918 386.152252,158.483398
	C384.763733,154.147797 384.971375,151.569870 390.063324,150.797318
	C392.172272,150.477325 394.244720,149.667419 396.230011,148.833359
	C400.563843,147.012695 404.343292,146.307220 405.444305,153.827423
	C409.175934,147.288284 414.052032,143.769241 419.621246,140.934418
	C423.483826,138.968307 425.885162,139.171402 426.754852,143.864685
	C426.875244,144.514343 427.158173,145.132126 427.318420,145.776474
	C428.156921,149.148361 430.630981,152.503799 429.767883,155.797256
	C428.827667,159.385025 424.145264,158.539795 421.409821,160.297028
	C418.081512,162.435120 415.305847,164.896423 414.100647,169.225861
z"/>
<path fill="#000000" opacity="1.000000" stroke="none"
	d="
M624.175293,810.981934
	C629.568176,828.683533 634.789978,846.020813 640.194702,863.301025
	C641.275391,866.756226 640.627502,868.608826 636.963745,869.366577
	C634.530579,869.869751 632.093933,870.550659 629.801086,871.496765
	C625.199890,873.395264 621.352722,873.942871 620.588989,866.144958
	C616.510803,873.446289 611.068542,877.264832 604.696472,879.963928
	C602.008728,881.102295 600.203186,880.798157 599.572571,877.610229
	C599.412537,876.801514 599.026367,876.040344 598.803711,875.240723
	C597.824585,871.725342 595.723633,868.037781 596.204163,864.728455
	C596.751892,860.955688 601.908264,861.780151 604.759277,859.933350
	C610.689453,856.091797 613.392578,850.842102 612.122742,843.874268
	C610.239136,833.538635 606.584229,823.689758 603.475403,813.703918
	C602.161926,809.485168 603.079712,807.448608 607.368774,806.648438
	C609.313721,806.285767 611.173096,805.472534 613.077759,804.884888
	C622.933350,801.844360 621.053406,801.497620 624.175293,810.981934
z"/>
<path fill="#000000" opacity="1.000000" stroke="none"
	d="
M498.711609,179.277817
	C502.613495,184.192474 503.456573,189.138748 500.492889,194.423325
	C497.839203,199.155167 493.513458,201.041931 488.346283,200.729340
	C483.242126,200.420547 479.689453,197.636826 477.817352,192.798981
	C475.881897,187.797562 476.596008,183.137924 480.324677,179.387161
	C484.164307,175.524841 489.013519,174.618713 494.172668,176.490143
	C495.698914,177.043793 497.025146,178.149002 498.711609,179.277817
z"/>
<path fill="#000000" opacity="1.000000" stroke="none"
	d="
M814.566162,410.522522
	C821.777344,405.999176 828.227905,406.398376 832.488098,411.360352
	C836.573242,416.118439 836.761169,423.327271 832.920166,427.931824
	C828.373596,433.382507 820.363403,434.254120 815.030945,429.878479
	C809.407532,425.264130 809.088074,417.205383 814.566162,410.522522
z"/>
<path fill="#000000" opacity="1.000000" stroke="none"
	d="
M533.026489,844.237793
	C526.092712,841.168152 522.939697,836.107971 523.911987,830.144775
	C524.835388,824.481628 529.449097,820.137512 535.049194,819.658325
	C542.889587,818.987366 548.704468,823.942383 549.208740,831.724243
	C549.670105,838.844055 544.071533,844.519470 536.377075,844.673950
	C535.390198,844.693787 534.397949,844.441772 533.026489,844.237793
z"/>
</svg>
